<svg width="38" height="38" viewBox="0 0 38 38" fill="none" xmlns="http://www.w3.org/2000/svg">
<circle cx="19" cy="19" r="18" stroke="#BDD2E9" stroke-width="2"/>
<path d="M10.702 22.022H13.294C13.312 22.742 13.672 24.11 16.03 24.11C17.308 24.11 18.73 23.804 18.73 22.436C18.73 21.428 17.758 21.158 16.39 20.834L15.004 20.51C12.916 20.024 10.9 19.556 10.9 16.712C10.9 15.272 11.674 12.734 15.868 12.734C19.828 12.734 20.89 15.326 20.908 16.91H18.316C18.244 16.334 18.028 14.966 15.67 14.966C14.644 14.966 13.42 15.344 13.42 16.514C13.42 17.522 14.248 17.738 14.788 17.864L17.938 18.638C19.702 19.07 21.322 19.79 21.322 22.112C21.322 26 17.362 26.342 16.228 26.342C11.512 26.342 10.702 23.624 10.702 22.022ZM27.6039 12.734L23.5179 26.342H21.4119L25.4979 12.734H27.6039Z" fill="#BDD2E9"/>
</svg>
