<svg width="28" height="30" viewBox="0 0 28 30" fill="none" xmlns="http://www.w3.org/2000/svg">
<path d="M26.5007 9L18.0007 1V9H26.5007Z" fill="black"/>
<path fill-rule="evenodd" clip-rule="evenodd" d="M3.10027 0.999854C3.10027 0.502797 3.50321 0.0998535 4.00027 0.0998535H18.0003C18.2295 0.0998535 18.4501 0.187346 18.6171 0.344474L27.1171 8.34447C27.2921 8.5092 27.394 8.73709 27.4 8.97736L27.3997 28.9774C27.4058 29.2199 27.3137 29.4546 27.1443 29.6282C26.9749 29.8019 26.7426 29.8999 26.5 29.8999L4.00027 29.8999C3.50321 29.8999 3.10027 29.4969 3.10027 28.9999V23.9999C3.10027 23.5028 3.50321 23.0999 4.00027 23.0999C4.49732 23.0999 4.90027 23.5028 4.90027 23.9999V28.0999L25.6225 28.0999V9.89985H18.0003C17.5032 9.89985 17.1003 9.49691 17.1003 8.99985V1.89985H4.90027V12.9999C4.90027 13.4969 4.49732 13.8999 4.00027 13.8999C3.50321 13.8999 3.10027 13.4969 3.10027 12.9999V0.999854ZM18.9003 3.08284L24.2308 8.09985H18.9003V3.08284Z" fill="black"/>
<path fill-rule="evenodd" clip-rule="evenodd" d="M0.100266 12.9999C0.100266 12.5028 0.503209 12.0999 1.00027 12.0999H22.0003C22.4973 12.0999 22.9003 12.5028 22.9003 12.9999V22.9999C22.9003 23.4969 22.4973 23.8999 22.0003 23.8999H1.00027C0.503209 23.8999 0.100266 23.4969 0.100266 22.9999V12.9999ZM1.90027 13.8999V22.0999H21.1003V13.8999H1.90027Z" fill="black"/>
<path d="M18.1051 15.8586C18.3317 15.8586 18.5153 15.675 18.5153 15.4485C18.5153 15.222 18.3317 15.0383 18.1051 15.0383H15.2546C15.028 15.0383 14.8444 15.222 14.8444 15.4485V20.6659C14.8444 20.8925 15.028 21.0761 15.2546 21.0761C15.4811 21.0761 15.6647 20.8925 15.6647 20.6659V18.418H17.6051C17.8317 18.418 18.0153 18.2343 18.0153 18.0078C18.0153 17.7813 17.8317 17.5976 17.6051 17.5976H15.6647V15.8586H18.1051Z" fill="black"/>
<path fill-rule="evenodd" clip-rule="evenodd" d="M14.7438 15.4486C14.7438 15.1669 14.9722 14.9385 15.254 14.9385H18.1046C18.3864 14.9385 18.6147 15.1669 18.6147 15.4486C18.6147 15.7304 18.3864 15.9588 18.1046 15.9588H15.7641V17.4978H17.6046C17.8864 17.4978 18.1147 17.7262 18.1147 18.008C18.1147 18.2897 17.8864 18.5181 17.6046 18.5181H15.7641V20.6661C15.7641 20.9478 15.5358 21.1763 15.254 21.1763C14.9722 21.1763 14.7438 20.9478 14.7438 20.6661V15.4486ZM15.254 15.1385C15.0826 15.1385 14.9438 15.2773 14.9438 15.4486V20.6661C14.9438 20.8374 15.0826 20.9763 15.254 20.9763C15.4253 20.9763 15.5641 20.8374 15.5641 20.6661V18.3181H17.6046C17.7759 18.3181 17.9147 18.1792 17.9147 18.008C17.9147 17.8367 17.7759 17.6978 17.6046 17.6978H15.5641V15.7588H18.1046C18.2759 15.7588 18.4147 15.6199 18.4147 15.4486C18.4147 15.2773 18.2759 15.1385 18.1046 15.1385H15.254Z" fill="black"/>
<path d="M9.87761 15.0383C9.76873 15.0383 9.66427 15.0816 9.58727 15.1588C9.51038 15.2359 9.46724 15.3404 9.46745 15.4493V15.4538V15.454V20.5812C9.46745 20.6132 9.47145 20.6441 9.47839 20.6739C9.48047 20.7804 9.52362 20.882 9.5992 20.957C9.67603 21.0333 9.77994 21.0761 9.88816 21.0761H9.8897C9.93427 21.0759 10.9863 21.0719 11.4057 21.0646C12.1336 21.0519 12.7816 20.7221 13.2307 20.1361C13.6444 19.596 13.8724 18.8578 13.8724 18.0572C13.8724 16.2516 12.8608 15.0384 11.3553 15.0384H9.87761V15.0383ZM13.0521 18.0572C13.0521 19.3279 12.3692 20.2273 11.3914 20.2444C11.1419 20.2487 10.6504 20.252 10.2969 20.2539C10.2949 19.6554 10.2915 18.5599 10.2915 18.0515C10.2915 17.626 10.2896 16.4787 10.2884 15.8587H11.3552C12.1756 15.8586 13.0521 16.4363 13.0521 18.0572Z" fill="black"/>
<path fill-rule="evenodd" clip-rule="evenodd" d="M9.51593 15.0882C9.61167 14.9924 9.74158 14.9385 9.87702 14.9385H9.97702L11.3547 14.9385C12.1365 14.9385 12.7941 15.2545 13.2546 15.8068C13.7138 16.3575 13.9718 17.1365 13.9718 18.0574C13.9718 18.8759 13.7389 19.6366 13.3095 20.1971C12.8422 20.8069 12.1657 21.1515 11.4068 21.1647C10.9866 21.172 9.93371 21.1761 9.88948 21.1762L9.88758 21.1763C9.75298 21.1763 9.62374 21.1231 9.52815 21.0282C9.43653 20.9371 9.38328 20.8149 9.37814 20.6866C9.37102 20.6531 9.36687 20.618 9.36687 20.5814V15.4495M9.87127 15.1385C9.79102 15.14 9.71434 15.1726 9.65745 15.2296C9.59927 15.2879 9.5667 15.3669 9.56687 15.4493L9.56687 20.5814C9.56687 20.6049 9.56981 20.6283 9.5752 20.6514L9.57758 20.6616L9.57779 20.6721C9.57936 20.7528 9.61204 20.8296 9.66907 20.8862M9.87127 15.1385H11.3547C12.0784 15.1385 12.6793 15.4291 13.101 15.9349C13.524 16.4422 13.7718 17.1726 13.7718 18.0574C13.7718 18.8399 13.5488 19.5558 13.1507 20.0755C12.7199 20.6376 12.1002 20.9526 11.4034 20.9647C10.9856 20.972 9.93752 20.9761 9.889 20.9763H9.88758C9.80573 20.9763 9.72715 20.9439 9.66907 20.8862M10.1877 15.7588H11.3546C11.3546 15.7588 11.3546 15.7588 11.3546 15.7588C11.7883 15.7588 12.2407 15.9118 12.584 16.2822C12.9273 16.6526 13.1515 17.2291 13.1515 18.0574C13.1515 19.3573 12.4471 20.3261 11.3925 20.3445C11.3925 20.3445 11.3925 20.3445 11.3925 20.3445C11.1424 20.3489 10.6502 20.3521 10.2969 20.354L10.1967 20.3546L10.1963 20.2544C10.1943 19.656 10.1909 18.5603 10.1909 18.0516C10.1909 17.6262 10.189 16.4791 10.1878 15.859L10.1877 15.7588ZM10.388 15.9588C10.3892 16.5953 10.3909 17.648 10.3909 18.0516C10.3909 18.5327 10.3939 19.5396 10.396 20.1535C10.7372 20.1515 11.1631 20.1485 11.389 20.1445C12.2901 20.1288 12.9515 19.2988 12.9515 18.0574C12.9515 17.2647 12.7374 16.7419 12.4373 16.4182C12.1374 16.0946 11.7414 15.9588 11.3546 15.9588H10.388Z" fill="black"/>
<path d="M5.41087 15.0001C5.30187 15.0001 5.19737 15.0434 5.12037 15.1206C5.04391 15.1973 5.00104 15.3011 5.00077 15.4093L5.00066 20.6661C5.00066 20.8926 5.18424 21.0763 5.41081 21.0763C5.63738 21.0763 5.82097 20.8926 5.82097 20.6661V18.791C6.16134 18.7891 6.63346 18.7868 6.8743 18.7868C7.93431 18.7868 8.79668 17.9374 8.79668 16.8934C8.79668 15.8494 7.93426 15 6.8743 15L5.41087 15.0001ZM7.97642 16.8934C7.97642 17.4751 7.47171 17.9665 6.87436 17.9665C6.63483 17.9665 6.16927 17.9688 5.8289 17.9707C5.82704 17.6212 5.82469 17.1378 5.82469 16.8934C5.82469 16.6873 5.82337 16.1839 5.82228 15.8204H6.87436C7.47171 15.8204 7.97642 16.3117 7.97642 16.8934Z" fill="black"/>
<path fill-rule="evenodd" clip-rule="evenodd" d="M5.31028 14.9101C5.21197 14.9297 5.12083 14.9781 5.04897 15.0502C4.95478 15.1446 4.90161 15.2721 4.90021 15.4051C4.90012 15.4067 4.90007 15.4085 4.90007 15.4104V20.6663C4.90007 20.948 5.12842 21.1764 5.41023 21.1764C5.69203 21.1764 5.92038 20.948 5.92038 20.6663V18.8906C6.24827 18.8889 6.65587 18.8869 6.87372 18.8869C7.98752 18.8869 8.89609 17.9942 8.89609 16.8935C8.89609 15.7928 7.98746 14.9001 6.87372 14.9001H5.31028V14.9101ZM5.51028 15.1002H5.41028C5.32786 15.1002 5.24883 15.133 5.19059 15.1914C5.13285 15.2493 5.10039 15.3278 5.10018 15.4097C5.10018 15.4113 5.10014 15.4128 5.10007 15.4142V20.6663C5.10007 20.8376 5.23889 20.9764 5.41023 20.9764C5.58156 20.9764 5.72038 20.8376 5.72038 20.6663V18.6917L5.81984 18.6911C6.16012 18.6893 6.63254 18.6869 6.87372 18.6869C7.87994 18.6869 8.69609 17.8809 8.69609 16.8935C8.69609 15.9062 7.87988 15.1001 6.87372 15.1001L5.51028 15.1002ZM5.09917 15.4237L5.09837 15.4286C5.0982 15.4295 5.09865 15.4272 5.09901 15.4248C5.09906 15.4244 5.09912 15.4241 5.09917 15.4237ZM5.72139 15.7205H6.87377C7.52382 15.7205 8.07584 16.2542 8.07584 16.8936C8.07584 17.533 7.52382 18.0667 6.87377 18.0667C6.63457 18.0667 6.16931 18.069 5.82886 18.0708L5.72885 18.0714L5.72831 17.9714C5.72645 17.6219 5.7241 17.1383 5.7241 16.8936C5.7241 16.6876 5.72279 16.1844 5.7217 15.8208L5.72139 15.7205ZM5.92199 15.9205C5.92301 16.2711 5.9241 16.7056 5.9241 16.8936C5.9241 17.1151 5.92604 17.5335 5.92779 17.8703C6.25448 17.8686 6.65669 17.8667 6.87377 17.8667C7.41843 17.8667 7.87584 17.4175 7.87584 16.8936C7.87584 16.3696 7.41843 15.9205 6.87377 15.9205H5.92199Z" fill="black"/>
</svg>
