<svg width="139" height="78" viewBox="0 0 139 78" fill="none" xmlns="http://www.w3.org/2000/svg">
<rect width="139" height="78" fill="#FF3535"/>
<path d="M33.8851 62.678H35.6622V66.6553C35.1544 67.0784 34.5621 67.4169 33.8851 67.5861C33.2081 67.7554 32.5311 67.9246 31.7695 67.9246C30.754 67.9246 29.8231 67.6708 29.0615 67.2477C28.2153 66.8245 27.6229 66.2322 27.1998 65.3859C26.692 64.6243 26.4382 63.7781 26.4382 62.7626C26.4382 61.8317 26.692 60.9009 27.1152 60.1392C27.5383 59.3776 28.2153 58.7853 29.0615 58.2775C29.9078 57.8544 30.754 57.6005 31.8541 57.6005C32.7003 57.6005 33.462 57.7698 34.1389 58.0236C34.8159 58.2775 35.4083 58.7006 35.8314 59.2084L34.6467 60.3931C33.8851 59.6315 32.9542 59.2084 31.9387 59.2084C31.2617 59.2084 30.5847 59.3776 30.077 59.6315C29.4846 59.8854 29.1461 60.3085 28.8076 60.9009C28.4691 61.4086 28.3845 62.0856 28.3845 62.678C28.3845 63.2703 28.5538 63.9473 28.8076 64.4551C29.1461 64.9628 29.5693 65.3859 30.077 65.7244C30.6694 66.0629 31.2617 66.1475 31.9387 66.1475C32.7003 66.1475 33.3773 65.9783 33.9697 65.6398L33.8851 62.678Z" fill="white"/>
<path d="M47.0869 66.2329V67.7561H39.64V57.8551H46.833V59.3784H41.4171V61.9171H46.2407V63.4403H41.4171V66.1483H47.0869V66.2329Z" fill="white"/>
<path d="M52.5029 67.2479C51.6567 66.8248 51.0643 66.2324 50.6412 65.3862C50.218 64.6246 49.9642 63.6937 49.9642 62.7628C49.9642 61.832 50.218 60.9011 50.6412 60.1395C51.0643 59.3779 51.7413 58.7855 52.5029 58.2778C53.3491 57.8546 54.1954 57.6008 55.2109 57.6008C56.2263 57.6008 57.1572 57.8546 57.9188 58.2778C58.7651 58.7009 59.3574 59.2932 59.7806 60.1395C60.2037 60.9011 60.4575 61.832 60.4575 62.7628C60.4575 63.6937 60.2037 64.6246 59.7806 65.3862C59.3574 66.1478 58.6804 66.7402 57.9188 67.2479C57.0726 67.671 56.2263 67.9249 55.2109 67.9249C54.28 67.9249 53.3491 67.671 52.5029 67.2479ZM57.0726 65.8093C57.5803 65.4708 58.0034 65.1323 58.3419 64.5399C58.6804 64.0322 58.7651 63.4398 58.7651 62.7628C58.7651 62.0858 58.5958 61.4935 58.3419 60.9857C58.0034 60.478 57.5803 60.0549 57.0726 59.7164C56.5648 59.3779 55.9725 59.2932 55.2955 59.2932C54.6185 59.2932 54.0261 59.4625 53.5184 59.7164C53.0106 60.0549 52.5875 60.3934 52.249 60.9857C51.9105 61.4935 51.8259 62.0858 51.8259 62.7628C51.8259 63.4398 51.9951 64.0322 52.249 64.5399C52.5875 65.0477 53.0106 65.4708 53.5184 65.8093C54.0261 66.1478 54.6185 66.2324 55.2955 66.2324C55.8878 66.317 56.4802 66.1478 57.0726 65.8093Z" fill="white"/>
<path d="M75.8609 58.2783C76.4532 58.5321 76.961 58.9552 77.2995 59.463C77.638 59.9707 77.8072 60.6477 77.8072 61.3247C77.8072 62.0863 77.638 62.6787 77.2995 63.1864C76.961 63.6942 76.4532 64.1173 75.8609 64.3712C75.2685 64.625 74.5069 64.7943 73.576 64.7943H71.2912V67.6715H69.4294V57.8551H73.4914C74.5069 57.8551 75.2685 57.9398 75.8609 58.2783ZM75.3531 62.8479C75.7762 62.5094 75.9455 62.0017 75.9455 61.4093C75.9455 60.817 75.7762 60.3092 75.3531 59.9707C74.93 59.6322 74.3376 59.463 73.4914 59.463H71.3758V63.4403H73.4914C74.3376 63.3557 74.93 63.1864 75.3531 62.8479Z" fill="white"/>
<path d="M88.6366 66.2329V67.7561H81.1897V57.8551H88.3827V59.3784H82.9668V61.9171H87.7904V63.4403H82.9668V66.1483H88.6366V66.2329Z" fill="white"/>
<path d="M98.7046 67.7561L96.6736 64.8789C96.589 64.8789 96.5044 64.8789 96.3351 64.8789H94.1349V67.7561H92.2732V57.8551H96.3351C97.1814 57.8551 97.943 58.0244 98.62 58.2783C99.2124 58.5321 99.7201 58.9552 100.059 59.463C100.397 59.9707 100.566 60.6477 100.566 61.3247C100.566 62.0863 100.397 62.6787 99.974 63.2711C99.6355 63.7788 99.0431 64.2019 98.4507 64.4558L100.736 67.6715L98.7046 67.7561ZM98.1122 59.8861C97.6891 59.5476 97.0968 59.3784 96.2505 59.3784H94.1349V63.3557H96.2505C97.0121 63.3557 97.6891 63.1864 98.1122 62.8479C98.5354 62.5095 98.7046 62.0017 98.7046 61.4093C98.7046 60.7323 98.5354 60.2246 98.1122 59.8861Z" fill="white"/>
<path d="M105.223 66.7402C104.462 65.9786 104.123 64.8785 104.123 63.4399V57.8547H105.985V63.3553C105.985 65.3016 106.831 66.2325 108.524 66.2325C110.216 66.2325 111.062 65.3016 111.062 63.3553V57.8547H112.84V63.4399C112.84 64.8785 112.501 65.9786 111.739 66.7402C110.978 67.5019 109.878 67.925 108.524 67.925C107.085 67.925 105.985 67.5019 105.223 66.7402ZM109.116 55.0621H111.232L108.778 57.0085H107.254L109.116 55.0621Z" fill="white"/>
<path d="M111.233 46.0918L107.087 38.3064C107.002 38.1372 106.833 38.0525 106.663 37.9679L102.432 36.8678L94.3083 27.1361C94.2237 27.0514 94.2237 27.0514 94.1391 26.9668H94.0545C94.0545 26.9668 93.9698 26.9668 93.8852 26.8822L80.0069 23.4972L67.3133 9.87277C67.2287 9.78815 67.144 9.78815 67.0594 9.70352H66.9748C66.8902 9.70352 66.8055 9.70352 66.8055 9.70352H66.7209C66.6363 9.70352 66.5517 9.78815 66.467 9.78815L61.6435 14.6963C61.6435 14.6963 61.5589 14.781 61.5589 14.8656L55.2121 25.5282C55.2121 25.5282 55.2121 25.5282 55.1274 25.6128L50.9809 29.6748L44.5494 23.0741C44.3802 22.9049 44.211 22.8202 44.0417 22.9049C43.8725 22.9049 43.6186 22.9895 43.534 23.1587L38.2873 30.3518L38.2027 30.4364L33.4637 41.099L29.9941 42.7915C29.8249 42.8761 29.7403 42.9607 29.6556 43.13L28.0478 46.5149C27.9632 46.6842 27.9632 46.9381 28.0478 47.1073C28.1324 47.2766 28.3017 47.4458 28.5555 47.4458L38.6258 49.2229H38.7104L76.0295 50.5769H76.1142L94.5622 50.0691H94.6468C94.6468 50.0691 94.6468 50.0691 94.7314 50.0691L110.895 47.1073C111.148 47.1073 111.361 46.8916 111.402 46.7688C111.487 46.5149 111.318 46.2611 111.233 46.0918ZM82.461 36.3601L74.5909 22.4817L79.076 24.5973L82.461 36.3601ZM71.0367 37.2063L81.4455 40.7605L74.3371 41.4375V41.3529C74.3371 41.2683 74.2524 41.1836 74.2524 41.099L71.0367 37.2063ZM72.8138 41.6068L59.1048 42.9607L53.3503 36.0216L68.7519 36.4447L72.8138 41.6068ZM69.9366 35.3446L73.1523 22.7356L82.8841 39.9143L69.9366 35.3446ZM76.7065 22.0586L73.4062 20.4508L70.3597 15.1195L76.7065 22.0586ZM66.9748 11.9037L72.1368 21.0431L68.498 35.0907L61.982 34.8368L64.1822 19.8584L66.9748 11.9037ZM62.5743 15.6272L65.2823 12.9192L62.9975 19.6045V19.6891L60.9665 33.4829L56.4814 26.0359L62.5743 15.6272ZM55.5506 27.1361L60.2049 34.9215L52.5041 34.6676L51.7425 30.9441L55.5506 27.1361ZM44.1263 24.5973L50.3885 30.9441L51.1501 34.8368L44.8879 38.7295L39.6413 30.7749L44.1263 24.5973ZM29.571 46.2611L30.6711 43.8916L33.633 42.453L37.1025 47.5304L29.571 46.2611ZM34.7331 41.5221L38.9643 32.1289L43.9571 39.745L38.6258 47.2766L34.7331 41.5221ZM45.2264 40.2528L51.8271 36.1062L57.6662 43.2146L40.2336 47.4458L45.2264 40.2528ZM43.534 48.0382L59.0201 44.3147L73.4062 42.9607L75.1833 49.2229L43.534 48.0382ZM76.4527 49.2229L74.6756 42.7915L84.3227 41.8606L92.6158 48.7998L76.4527 49.2229ZM85.1689 40.7605L80.5992 25.1051L93.039 28.1515L93.8006 47.9535L85.1689 40.7605ZM94.4776 29.5055L101.163 37.4602L95.0699 47.1073L94.4776 29.5055ZM95.9162 48.4613L102.348 38.2218L105.986 39.2373L109.625 45.9226L95.9162 48.4613Z" fill="white"/>
</svg>
