<svg width="27" height="24" viewBox="0 0 27 24" fill="none" xmlns="http://www.w3.org/2000/svg">
<path d="M11.779 3.47647L2.2596 18.7632C2.06333 19.0902 1.95948 19.4609 1.95838 19.8384C1.95728 20.2159 2.05897 20.5872 2.25334 20.9152C2.4477 21.2432 2.72796 21.5165 3.06623 21.708C3.40451 21.8994 3.789 22.0024 4.18147 22.0065H23.2203C23.6128 22.0024 23.9973 21.8994 24.3356 21.708C24.6738 21.5165 24.9541 21.2432 25.1485 20.9152C25.3428 20.5872 25.4445 20.2159 25.4434 19.8384C25.4423 19.4609 25.3385 19.0902 25.1422 18.7632L15.6228 3.47647C15.4224 3.15874 15.1403 2.89605 14.8037 2.71374C14.467 2.53143 14.0872 2.43565 13.7009 2.43565C13.3146 2.43565 12.9348 2.53143 12.5981 2.71374C12.2615 2.89605 11.9794 3.15874 11.779 3.47647V3.47647Z" stroke="white" stroke-width="3" stroke-linecap="round" stroke-linejoin="round"/>
<path d="M13.6382 9.06903V13.4168" stroke="white" stroke-width="3" stroke-linecap="round" stroke-linejoin="round"/>
<path d="M13.6382 17.7646H13.6474" stroke="white" stroke-width="3" stroke-linecap="round" stroke-linejoin="round"/>
</svg>
