<svg width="29" height="28" viewBox="0 0 29 28" fill="none" xmlns="http://www.w3.org/2000/svg">
<path fill-rule="evenodd" clip-rule="evenodd" d="M22.8244 25.9993C24.5798 25.9993 26.0029 24.5762 26.0029 22.8207C26.0029 21.0652 24.5798 19.6421 22.8244 19.6421C21.0689 19.6421 19.6458 21.0652 19.6458 22.8207C19.6458 24.5762 21.0689 25.9993 22.8244 25.9993ZM28.0029 22.8207C28.0029 25.6807 25.6844 27.9993 22.8244 27.9993C19.9643 27.9993 17.6458 25.6807 17.6458 22.8207C17.6458 19.9607 19.9643 17.6421 22.8244 17.6421C25.6844 17.6421 28.0029 19.9606 28.0029 22.8207Z" fill="black"/>
<path fill-rule="evenodd" clip-rule="evenodd" d="M22.8244 8.35641C24.5798 8.35641 26.0029 6.93332 26.0029 5.17784C26.0029 3.42237 24.5798 1.99927 22.8244 1.99927C21.0689 1.99927 19.6458 3.42236 19.6458 5.17784C19.6458 6.93332 21.0689 8.35641 22.8244 8.35641ZM28.0029 5.17784C28.0029 8.03789 25.6844 10.3564 22.8244 10.3564C19.9643 10.3564 17.6458 8.03789 17.6458 5.17784C17.6458 2.3178 19.9643 -0.000729812 22.8244 -0.000730062C25.6844 -0.000730312 28.0029 2.31779 28.0029 5.17784Z" fill="black"/>
<path fill-rule="evenodd" clip-rule="evenodd" d="M5.1815 16.7136C6.93698 16.7136 8.36007 15.2905 8.36007 13.535C8.36007 11.7795 6.93698 10.3564 5.1815 10.3564C3.42603 10.3564 2.00293 11.7795 2.00293 13.535C2.00293 15.2905 3.42603 16.7136 5.1815 16.7136ZM10.3601 13.535C10.3601 16.395 8.04155 18.7136 5.1815 18.7136C2.32146 18.7136 0.00293058 16.395 0.00293033 13.535C0.00293008 10.6749 2.32146 8.35642 5.1815 8.35641C8.04155 8.35641 10.3601 10.6749 10.3601 13.535Z" fill="black"/>
<path fill-rule="evenodd" clip-rule="evenodd" d="M19.5402 20.9465C19.2932 21.4405 18.6926 21.6407 18.1986 21.3937L8.91286 16.7508C8.41888 16.5039 8.21866 15.9032 8.46565 15.4092C8.71263 14.9152 9.31331 14.715 9.80729 14.962L19.093 19.6048C19.587 19.8518 19.7872 20.4525 19.5402 20.9465Z" fill="black"/>
<path fill-rule="evenodd" clip-rule="evenodd" d="M8.46565 12.5893C8.21866 12.0954 8.41888 11.4947 8.91286 11.2477L18.1986 6.60484C18.6926 6.35785 19.2932 6.55808 19.5402 7.05206C19.7872 7.54604 19.587 8.14671 19.093 8.3937L9.80729 13.0366C9.31331 13.2835 8.71263 13.0833 8.46565 12.5893Z" fill="black"/>
</svg>
