<svg width="616" height="40" viewBox="0 0 616 40" fill="none" xmlns="http://www.w3.org/2000/svg">
<path d="M31.6451 26.5455C31.1919 26.0909 30.5574 25.8182 30.0136 25.9091C29.4697 26 28.9259 26.4546 28.7446 27C28.654 27.0909 28.7446 27.2727 28.8353 27.3636C28.9259 27.4546 29.1072 27.4546 29.1978 27.3636C29.4697 27.1818 29.651 27.0909 29.9229 27.0909C30.1042 27.1818 30.1949 27.2727 30.2855 27.5455C30.3761 27.7273 30.2855 28.0909 30.1949 28.2727C30.1042 28.3636 30.0136 28.4546 29.9229 28.4546C29.4697 28.5455 28.8353 28 28.2008 27.4546C27.5663 26.9091 26.8412 26.2727 25.9348 26C24.7565 25.5455 21.6747 24.8182 19.4994 26.4546C19.4087 26.4546 18.2304 27.4546 17.9585 28.4546C17.5053 29.3636 17.4146 30.2727 17.7772 31.0909C17.5053 31.2727 17.324 31.5455 17.324 31.9091C17.324 32.5455 18.0491 33.0909 19.0462 33.1818C18.9555 33.3636 18.8649 33.4546 18.8649 33.6364C18.8649 34.3636 19.6806 34.9091 20.7683 34.9091C21.4934 34.9091 22.1279 34.6364 22.4905 34.1818C22.7624 34.6364 23.3969 34.9091 24.2126 34.9091C25.3003 34.9091 26.1161 34.3636 26.1161 33.6364C26.1161 33.4546 26.0254 33.2727 25.9348 33.1818C26.5693 33.1818 27.1131 32.9091 27.385 32.5455C27.4757 32.5455 27.4757 32.5455 27.4757 32.4546C27.6569 32.2727 28.1101 32.1818 28.4727 32.0909C28.5633 32.0909 28.654 32.0909 28.654 32.0909C28.7446 32.0909 30.2855 31.9091 31.1013 30.9091C32.1889 29.7273 32.6421 27.5455 31.6451 26.5455ZM18.8649 30.3636C18.8649 30.0909 19.0462 29.8182 19.2274 29.6364C19.1368 29.8182 19.0462 30 19.0462 30.1818C19.0462 30.3636 19.1368 30.5455 19.2274 30.6364C19.1368 30.6364 19.0462 30.6364 18.9555 30.6364C18.8649 30.6364 18.7742 30.4546 18.8649 30.3636ZM17.8678 31.9091C17.8678 31.7273 17.9585 31.6364 18.2304 31.4546C18.4117 31.3636 18.593 31.2727 18.7742 31.2727C18.8649 31.2727 19.0462 31.2727 19.1368 31.2727C19.8619 31.2727 20.4058 31.6364 20.4058 31.9091C20.4058 32.0909 20.2245 32.1818 20.1338 32.2727C19.8619 32.4546 19.4994 32.5455 19.0462 32.5455C18.4117 32.5455 17.8678 32.2727 17.8678 31.9091ZM22.4905 29.5455C22.2186 29.1818 21.5841 28.9091 20.859 28.9091C20.587 28.9091 20.4058 28.9091 20.1338 29C20.859 28.7273 21.6747 28.7273 22.5811 28.8182C22.853 28.8182 23.125 28.9091 23.3969 29C23.0343 29.1818 22.7624 29.3636 22.4905 29.5455ZM24.122 29.5455C24.2126 29.5455 24.3939 29.5455 24.5752 29.5455C25.119 29.6364 25.5722 29.9091 25.5722 30.1818C25.5722 30.3636 25.3003 30.6364 24.8471 30.7273C24.6658 30.8182 24.3939 30.8182 24.122 30.8182C23.3969 30.8182 22.7624 30.4546 22.7624 30.1818C22.853 29.9091 23.3969 29.5455 24.122 29.5455ZM20.859 29.5455C21.5841 29.5455 22.1279 29.9091 22.1279 30.1818C22.1279 30.3636 21.9466 30.5455 21.6747 30.6364C21.5841 30.6364 21.4934 30.7273 21.4934 30.7273C21.3122 30.8182 21.0402 30.8182 20.859 30.8182C20.1338 30.8182 19.59 30.4546 19.59 30.1818C19.59 29.9091 20.1338 29.5455 20.859 29.5455ZM20.6777 34.2727C19.9526 34.2727 19.4087 33.9091 19.4087 33.5455C19.4087 33.2727 19.9526 32.8182 20.6777 32.8182V32.9091C21.0402 32.9091 21.4028 33 21.6747 33.1818C21.7654 33.2727 21.9466 33.3636 21.9466 33.5455C22.0373 34 21.4934 34.2727 20.6777 34.2727ZM22.3998 32.5455C21.6747 32.5455 21.1309 32.1818 21.1309 31.9091C21.1309 31.7273 21.4028 31.4546 21.7654 31.3636C21.856 31.3636 21.9466 31.2727 22.0373 31.2727C22.2186 31.2727 22.3092 31.1818 22.4905 31.1818C23.2156 31.1818 23.7594 31.5455 23.7594 31.8182C23.7594 32.2727 23.2156 32.5455 22.3998 32.5455ZM24.122 34.2727C23.3969 34.2727 22.853 33.9091 22.853 33.6364C22.853 33.5455 22.9437 33.4546 23.0343 33.3636C23.3062 33.1818 23.6688 33 24.2126 33C24.4845 33 24.6658 33 24.8471 33.0909C25.2097 33.1818 25.4816 33.4546 25.4816 33.6364C25.3909 34 24.8471 34.2727 24.122 34.2727ZM26.9318 32.0909C26.7505 32.3636 26.2973 32.5455 25.6629 32.5455C25.4816 32.5455 25.2097 32.5455 25.0284 32.4546C24.5752 32.3636 24.3033 32.0909 24.3033 31.9091C24.3033 31.7273 24.5752 31.4546 24.9377 31.3636C25.119 31.2727 25.3909 31.2727 25.5722 31.2727C25.7535 31.2727 25.8441 31.2727 26.0254 31.3636C26.5693 31.4546 26.9318 31.7273 26.9318 32C26.9318 32 26.9318 32 26.9318 32.0909ZM25.8441 30.7273C25.8441 30.6364 25.8441 30.6364 25.8441 30.7273C25.8441 30.6364 25.8441 30.6364 25.8441 30.7273ZM28.1101 31.5455C28.0195 31.5455 28.0195 31.5455 28.0195 31.6364C27.9289 31.6364 27.7476 31.7273 27.6569 31.7273C27.5663 31.5455 27.385 31.1818 27.1131 30.5455C26.6599 29.6364 25.7535 28.3636 23.7594 27.7273C21.0402 26.9091 19.6806 27.2727 18.9555 27.7273C19.0462 27.6364 19.0462 27.6364 19.0462 27.5455C19.0462 27.5455 19.1368 27.5455 19.1368 27.4546C19.3181 27.1818 19.59 27 19.7713 26.8182C20.6777 26.4546 22.1279 26.3636 24.2126 27C26.9318 27.8182 27.7476 29.8182 28.0195 30.6364C28.1101 30.9091 28.1101 31.1818 28.1101 31.4546C28.2008 31.5455 28.1101 31.5455 28.1101 31.5455ZM30.0136 31.0909C29.7417 31.2727 29.4697 31.3636 29.1978 31.3636C29.3791 30 28.654 28.7273 28.2914 28.1818C28.7446 28.5455 29.1978 28.8182 29.651 28.9091C29.8323 29.4546 30.1042 30.1818 30.0136 31.0909Z" fill="white"/>
<path d="M23.7594 6.72727C26.6599 6.72727 29.0165 5.27273 29.0165 3.36364C29.0165 1.45455 26.6599 0 23.7594 0C20.859 0 18.5023 1.45455 18.5023 3.36364C18.593 5.18182 20.859 6.63636 23.7594 6.72727ZM23.7594 1.27273C25.3003 1.27273 26.388 1.81818 26.388 2.63636C26.388 3.18182 25.7535 3.72727 24.8471 3.90909C23.9407 4.18182 24.3033 4.45455 23.8501 4.81818C23.3969 4.45455 23.7594 4.18182 22.853 3.90909C21.7654 3.63636 21.2215 3.18182 21.2215 2.63636C21.2215 1.90909 22.3092 1.27273 23.7594 1.27273Z" fill="white"/>
<path d="M43.8815 25.2728V9.72732C43.8815 9.5455 43.7908 9.36368 43.6095 9.27277C43.4283 9.18186 43.3376 9.18186 43.1563 9.27277L41.5248 10.1819V4.72732C41.5248 4.5455 41.4342 4.36368 41.2529 4.27277C41.0716 4.18186 40.8903 4.18186 40.7091 4.27277L33.0953 9.09095C33.0047 9.09095 32.914 9.09095 32.914 9.09095C31.5544 9.5455 30.3761 9.72732 29.1978 9.72732C27.385 9.72732 26.1161 9.18186 25.3909 8.5455C24.6658 8.00004 24.3033 7.45459 24.3033 7.36368C24.122 7.27277 24.0313 7.27277 23.8501 7.27277C23.6688 7.27277 23.4875 7.36368 23.3969 7.45459C23.3062 7.5455 22.1279 9.81823 18.5023 9.81823C17.4146 9.81823 16.1457 9.5455 14.7861 9.18186H14.6954L6.99106 4.27277C6.80978 4.18186 6.80978 4.18186 6.6285 4.27277C6.44722 4.36368 6.44722 4.5455 6.44722 4.72732V10.1819L4.72506 9.27277C4.54378 9.18186 4.3625 9.18186 4.18122 9.27277C4.09058 9.36368 3.99994 9.5455 3.99994 9.72732V25.2728C3.99994 25.5455 3.9093 29.1819 6.99106 32.3637C9.80089 35.1819 14.061 36.6364 19.7713 36.6364C19.8619 36.6364 19.8619 36.6364 19.8619 36.6364C22.0373 37.2728 23.3062 37.8182 23.3062 39.5455C23.3062 39.8182 23.4875 40 23.7594 40C24.0313 40 24.2126 39.8182 24.2126 39.5455C24.2126 37.8182 25.4816 37.2728 27.6569 36.6364C27.7476 36.6364 27.7476 36.6364 27.8382 36.6364C33.6392 36.6364 37.8992 35.1819 40.7091 32.3637C43.8815 29.2728 43.8815 25.5455 43.8815 25.2728ZM40.4371 11V17L34.9988 19.8182C34.9988 19.8182 34.183 17.6364 36.7209 13.3637C38.2618 12.4546 40.4371 11 40.4371 11ZM35.7239 24.1819C35.6332 24.1819 35.6332 24.2728 35.7239 24.1819C35.6332 24.2728 35.6332 24.1819 35.6332 24.1819C35.6332 24.1819 35.6332 24.1819 35.7239 24.1819ZM24.3939 8.81823C25.2097 9.63641 26.6599 10.7273 29.2885 10.7273C30.3761 10.7273 31.5544 10.5455 32.8234 10.1819C34.183 12.3637 34.9081 13.3637 35.2707 13.8182C34.5456 14.9091 32.7328 18.4546 34.0924 23C33.3672 22.3637 32.0076 22.2728 30.3761 22.1819C30.1949 21.1819 30.1948 20.2728 30.1948 19.9091H32.6421C32.914 19.9091 32.914 19.3637 32.914 19V16.8182C32.914 15.091 32.0076 15 32.0076 15C32.0076 15 31.3732 14.9091 31.1012 14.091C30.8293 13.2728 30.3761 12.6364 29.651 12.5455C28.9259 12.4546 27.8382 13 26.9318 13.5455C26.388 13.8182 26.388 14.2728 26.2973 14.8182C26.1161 16.1819 25.6629 16.1819 25.6629 16.1819C25.3909 16.1819 25.3003 16.4546 25.3003 16.8182V19C25.3003 19.3637 25.3003 19.9091 25.5722 19.9091H27.8382C27.9289 20.2728 28.0195 21.091 27.7476 22.1819C26.1161 22.2728 25.0284 22.4546 24.3033 23.091L24.3939 8.81823ZM28.4727 19.9091H29.7417C29.651 20.2728 29.651 21.1819 29.8323 22.091C29.8323 22.091 29.8323 22.091 29.7417 22.091L28.2914 22C28.5633 21.091 28.5633 20.2728 28.4727 19.9091ZM14.7861 10.1819C16.055 10.5455 17.324 10.7273 18.5023 10.7273C20.7683 10.7273 22.3998 10 23.2156 9.18186V22.8182C22.5811 22.3637 21.4028 22.1819 20.2245 22.091C20.1338 21.3637 20.0432 19.8182 20.2245 19.3637C21.2215 19.091 21.3121 18.091 21.3121 17.1819C21.3121 16.5455 21.1309 14.2728 21.1309 14.2728C21.2215 14.1819 21.6747 14.091 21.7653 14.091C21.856 14.091 22.0373 14 22.0373 13.9091C22.0373 13.7273 22.1279 13.4546 22.0373 13.4546C21.9466 13.3637 21.4934 13.2728 21.4028 13.1819C21.1309 12.9091 20.9496 12.7273 20.6777 12.8182C20.4057 12.8182 20.0432 12.8182 19.8619 13.1819C19.59 13 19.3181 13.2728 18.9555 13.1819C18.9555 13.1819 18.8649 14.2728 20.0432 14.091L20.1338 16.9091C20.1338 16.9091 20.2245 17.4546 19.4087 17.3637C18.7742 17.2728 17.4146 16.7273 16.6895 16.9091C16.1457 17.091 15.6018 17.3637 15.3299 18.3637C14.9674 19.4546 15.5112 19.091 15.5112 19.091L16.055 18.7273C16.055 18.7273 16.4176 19.6364 15.9644 20.1819C15.6018 20.6364 15.7831 20.9091 15.7831 20.9091C15.7831 20.9091 15.9644 21.9091 15.8738 22.3637C14.7861 22.4546 13.9703 22.6364 13.4265 23.091C14.7861 18.5455 12.9733 15.091 12.2482 14C12.7014 13.3637 13.4265 12.3637 14.7861 10.1819ZM16.5082 20.7273C17.1427 20.4546 17.4146 19.2728 17.4146 19.2728C17.4146 19.2728 18.4117 19.9091 19.1368 19.5455C19.1368 19.8182 19.0462 20.3637 19.0462 20.3637C19.0462 20.3637 18.9555 20.7273 19.1368 21.1819C19.2274 21.3637 19.3181 21.9091 19.3181 22.1819C18.9555 22.1819 18.593 22.1819 18.2304 22.1819C17.5959 22.1819 17.0521 22.1819 16.4176 22.2728C16.5082 21.5455 16.5989 21.2728 16.5082 20.7273ZM7.26298 11C7.26298 11 9.43833 12.4546 10.9792 13.3637C13.5171 17.6364 12.7014 19.8182 12.7014 19.8182L7.26298 17V11V11ZM11.0698 30.1819C7.62554 28.2728 5.17826 26.8182 5.17826 26.8182L5.08762 20.6364L11.7043 24.3637C11.6137 24.3637 10.1635 27.2728 11.0698 30.1819ZM12.0669 24.1819C12.0669 24.1819 11.9762 24.1819 12.0669 24.1819C11.9762 24.1819 12.0669 24.1819 12.0669 24.1819ZM32.0983 33.7273C30.8293 34.6364 29.3791 35.1819 27.8382 35.5455C26.2067 36 24.5752 36.4546 23.7594 37.7273C23.0343 36.5455 21.4028 36.091 19.6806 35.6364C18.2304 35.1819 16.6895 34.7273 15.4206 33.8182C12.2482 31.3637 11.0698 29.4546 12.792 24.4546H34.5456C36.449 29.3637 35.2707 31.2728 32.0983 33.7273ZM42.0687 26.8182C42.0687 26.8182 39.6214 28.1819 36.1771 30.1819C37.0835 27.2728 35.6332 24.3637 35.6332 24.3637L42.2499 20.6364L42.0687 26.8182Z" fill="white"/>
<path d="M69.2606 14.7272C68.1729 13.1818 66.0882 12.5454 64.3661 12.5454C60.4685 12.5454 56.9336 15.6363 56.9336 20.5454C56.9336 25.4545 60.4685 28.6363 64.3661 28.6363C66.0882 28.6363 68.1729 27.909 69.2606 26.3636V26.8181C69.2606 30.8181 67.5384 32.2727 64.8193 32.2727C63.1877 32.2727 61.6469 31.2727 61.0124 29.9091L57.4774 31.4545C58.7464 34.2727 61.6469 36.0909 64.9099 36.0909C70.2576 36.0909 73.6113 33 73.6113 26.2727V12.8181H69.2606V14.7272ZM65.1818 24.5454C63.0065 24.5454 61.1937 22.7272 61.1937 20.4545C61.1937 18.1818 63.0065 16.4545 65.1818 16.4545C67.1759 16.4545 69.17 18.0909 69.17 20.4545C69.17 22.8181 67.2665 24.5454 65.1818 24.5454Z" fill="white"/>
<path d="M84.4881 28.5455C88.8388 28.5455 92.6457 25.3637 92.6457 20.5455C92.6457 15.7273 88.8388 12.4546 84.4881 12.4546C80.1374 12.4546 76.3305 15.6364 76.3305 20.5455C76.2399 25.3637 80.1374 28.5455 84.4881 28.5455ZM84.4881 24.5455C82.4034 24.5455 80.6812 22.9091 80.6812 20.5455C80.6812 18.1819 82.4034 16.4546 84.4881 16.4546C86.5728 16.4546 88.295 18.091 88.295 20.5455C88.295 22.9091 86.5728 24.5455 84.4881 24.5455Z" fill="white"/>
<path d="M104.519 12.4545C102.797 12.4545 100.713 13.1818 99.6249 14.6363V4.54541H95.3649V28.1818H99.6249V26.2727C100.713 27.8181 102.797 28.5454 104.519 28.5454C108.417 28.5454 111.952 25.3636 111.952 20.4545C111.952 15.5454 108.417 12.4545 104.519 12.4545ZM103.704 24.5454C101.619 24.5454 99.7156 22.8181 99.7156 20.4545C99.7156 18.0909 101.71 16.4545 103.704 16.4545C105.879 16.4545 107.601 18.1818 107.601 20.4545C107.601 22.7272 105.879 24.5454 103.704 24.5454Z" fill="white"/>
<path d="M116.665 28.4544C118.206 28.4544 119.475 27.3635 119.475 25.818C119.475 24.2725 118.206 23.1816 116.665 23.1816C115.215 23.1816 113.946 24.2725 113.946 25.818C114.037 27.3635 115.215 28.4544 116.665 28.4544Z" fill="white"/>
<path d="M131.711 12.4546C129.989 12.4546 127.905 13.1819 126.817 14.7273V12.8182H122.557V35.6364H126.817V26.2728C127.905 27.8182 129.989 28.5455 131.711 28.5455C135.609 28.5455 139.144 25.4546 139.144 20.4546C139.144 15.6364 135.609 12.4546 131.711 12.4546ZM130.896 24.5455C128.902 24.5455 126.908 22.8182 126.908 20.5455C126.908 18.2728 128.811 16.4546 130.896 16.4546C133.071 16.4546 134.793 18.2728 134.793 20.5455C134.793 22.8182 133.071 24.5455 130.896 24.5455Z" fill="white"/>
<path d="M157 20.2728C157 15.6364 153.465 12.4546 149.114 12.4546C144.764 12.4546 141.047 15.5455 141.047 20.5455C141.047 25.2728 144.492 28.5455 149.205 28.5455C151.924 28.5455 154.553 27.3637 156.003 25.4546L153.556 22.9091C152.649 24 151.108 24.7273 149.567 24.7273C147.573 24.7273 146.123 23.6364 145.67 21.9091H157.091C157 21.1819 157 20.6364 157 20.2728ZM145.489 19.091C145.942 17 147.483 16.1819 149.205 16.1819C151.108 16.1819 152.559 17.3637 152.74 19.091H145.489Z" fill="white"/>
<path d="M202.234 25V13.5469H206.555C207.315 13.5469 207.896 13.5833 208.297 13.6562C208.859 13.75 209.331 13.9297 209.711 14.1953C210.091 14.4557 210.396 14.8229 210.625 15.2969C210.859 15.7708 210.977 16.2917 210.977 16.8594C210.977 17.8333 210.667 18.6589 210.047 19.3359C209.427 20.0078 208.307 20.3438 206.688 20.3438H203.75V25H202.234ZM203.75 18.9922H206.711C207.69 18.9922 208.385 18.8099 208.797 18.4453C209.208 18.0807 209.414 17.5677 209.414 16.9062C209.414 16.4271 209.292 16.0182 209.047 15.6797C208.807 15.3359 208.49 15.1094 208.094 15C207.839 14.9323 207.367 14.8984 206.68 14.8984H203.75V18.9922ZM212.535 25V13.5469H213.942V25H212.535ZM221.383 23.9766C220.862 24.4193 220.36 24.7318 219.875 24.9141C219.396 25.0964 218.881 25.1875 218.328 25.1875C217.417 25.1875 216.716 24.9661 216.227 24.5234C215.737 24.0755 215.493 23.5052 215.493 22.8125C215.493 22.4062 215.584 22.0365 215.766 21.7031C215.953 21.3646 216.196 21.0938 216.493 20.8906C216.795 20.6875 217.133 20.5339 217.508 20.4297C217.784 20.3568 218.201 20.2865 218.758 20.2188C219.894 20.0833 220.729 19.9219 221.266 19.7344C221.271 19.5417 221.274 19.4193 221.274 19.3672C221.274 18.7943 221.141 18.3906 220.875 18.1562C220.516 17.8385 219.982 17.6797 219.274 17.6797C218.612 17.6797 218.123 17.7969 217.805 18.0312C217.493 18.2604 217.261 18.6693 217.11 19.2578L215.735 19.0703C215.86 18.4818 216.065 18.0078 216.352 17.6484C216.638 17.2839 217.052 17.0052 217.594 16.8125C218.136 16.6146 218.763 16.5156 219.477 16.5156C220.185 16.5156 220.761 16.599 221.203 16.7656C221.646 16.9323 221.972 17.1432 222.18 17.3984C222.388 17.6484 222.534 17.9661 222.618 18.3516C222.664 18.5911 222.688 19.0234 222.688 19.6484V21.5234C222.688 22.8307 222.716 23.6589 222.774 24.0078C222.836 24.3516 222.956 24.6823 223.133 25H221.664C221.519 24.7083 221.425 24.3672 221.383 23.9766ZM221.266 20.8359C220.756 21.0443 219.99 21.2214 218.969 21.3672C218.391 21.4505 217.982 21.5443 217.743 21.6484C217.503 21.7526 217.318 21.9062 217.188 22.1094C217.058 22.3073 216.993 22.5286 216.993 22.7734C216.993 23.1484 217.133 23.4609 217.414 23.7109C217.701 23.9609 218.118 24.0859 218.664 24.0859C219.206 24.0859 219.688 23.9688 220.11 23.7344C220.532 23.4948 220.841 23.1693 221.039 22.7578C221.19 22.4401 221.266 21.9714 221.266 21.3516V20.8359ZM227.786 23.7422L227.989 24.9844C227.593 25.0677 227.239 25.1094 226.926 25.1094C226.416 25.1094 226.02 25.0286 225.739 24.8672C225.458 24.7057 225.26 24.4948 225.145 24.2344C225.03 23.9688 224.973 23.4141 224.973 22.5703V17.7969H223.942V16.7031H224.973V14.6484L226.372 13.8047V16.7031H227.786V17.7969H226.372V22.6484C226.372 23.0495 226.395 23.3073 226.442 23.4219C226.494 23.5365 226.575 23.6276 226.684 23.6953C226.799 23.763 226.96 23.7969 227.168 23.7969C227.325 23.7969 227.53 23.7786 227.786 23.7422ZM234.423 23.9766C233.902 24.4193 233.399 24.7318 232.915 24.9141C232.436 25.0964 231.92 25.1875 231.368 25.1875C230.456 25.1875 229.756 24.9661 229.266 24.5234C228.777 24.0755 228.532 23.5052 228.532 22.8125C228.532 22.4062 228.623 22.0365 228.805 21.7031C228.993 21.3646 229.235 21.0938 229.532 20.8906C229.834 20.6875 230.173 20.5339 230.548 20.4297C230.824 20.3568 231.24 20.2865 231.798 20.2188C232.933 20.0833 233.769 19.9219 234.305 19.7344C234.311 19.5417 234.313 19.4193 234.313 19.3672C234.313 18.7943 234.18 18.3906 233.915 18.1562C233.555 17.8385 233.021 17.6797 232.313 17.6797C231.652 17.6797 231.162 17.7969 230.844 18.0312C230.532 18.2604 230.3 18.6693 230.149 19.2578L228.774 19.0703C228.899 18.4818 229.105 18.0078 229.391 17.6484C229.678 17.2839 230.092 17.0052 230.633 16.8125C231.175 16.6146 231.803 16.5156 232.516 16.5156C233.225 16.5156 233.8 16.599 234.243 16.7656C234.686 16.9323 235.011 17.1432 235.219 17.3984C235.428 17.6484 235.574 17.9661 235.657 18.3516C235.704 18.5911 235.727 19.0234 235.727 19.6484V21.5234C235.727 22.8307 235.756 23.6589 235.813 24.0078C235.876 24.3516 235.995 24.6823 236.173 25H234.704C234.558 24.7083 234.464 24.3672 234.423 23.9766ZM234.305 20.8359C233.795 21.0443 233.029 21.2214 232.008 21.3672C231.43 21.4505 231.021 21.5443 230.782 21.6484C230.542 21.7526 230.357 21.9062 230.227 22.1094C230.097 22.3073 230.032 22.5286 230.032 22.7734C230.032 23.1484 230.173 23.4609 230.454 23.7109C230.74 23.9609 231.157 24.0859 231.704 24.0859C232.245 24.0859 232.727 23.9688 233.149 23.7344C233.571 23.4948 233.881 23.1693 234.079 22.7578C234.23 22.4401 234.305 21.9714 234.305 21.3516V20.8359ZM238.091 25V17.7969H236.848V16.7031H238.091V15.8203C238.091 15.263 238.14 14.849 238.239 14.5781C238.374 14.2135 238.611 13.9193 238.95 13.6953C239.294 13.4661 239.773 13.3516 240.388 13.3516C240.783 13.3516 241.221 13.3984 241.7 13.4922L241.489 14.7188C241.197 14.6667 240.921 14.6406 240.661 14.6406C240.234 14.6406 239.932 14.7318 239.755 14.9141C239.578 15.0964 239.489 15.4375 239.489 15.9375V16.7031H241.106V17.7969H239.489V25H238.091ZM241.524 20.8516C241.524 19.3151 241.951 18.1771 242.806 17.4375C243.519 16.8229 244.389 16.5156 245.415 16.5156C246.556 16.5156 247.488 16.8906 248.212 17.6406C248.936 18.3854 249.298 19.4167 249.298 20.7344C249.298 21.8021 249.136 22.6432 248.813 23.2578C248.496 23.8672 248.03 24.3411 247.415 24.6797C246.806 25.0182 246.139 25.1875 245.415 25.1875C244.254 25.1875 243.313 24.8151 242.595 24.0703C241.881 23.3255 241.524 22.2526 241.524 20.8516ZM242.97 20.8516C242.97 21.9141 243.201 22.7109 243.665 23.2422C244.129 23.7682 244.712 24.0312 245.415 24.0312C246.113 24.0312 246.694 23.7656 247.157 23.2344C247.621 22.7031 247.853 21.8932 247.853 20.8047C247.853 19.7786 247.618 19.0026 247.149 18.4766C246.686 17.9453 246.108 17.6797 245.415 17.6797C244.712 17.6797 244.129 17.9427 243.665 18.4688C243.201 18.9948 242.97 19.7891 242.97 20.8516ZM250.778 25V16.7031H252.044V17.9609C252.367 17.3724 252.664 16.9844 252.935 16.7969C253.211 16.6094 253.513 16.5156 253.841 16.5156C254.315 16.5156 254.797 16.6667 255.286 16.9688L254.802 18.2734C254.458 18.0703 254.114 17.9688 253.771 17.9688C253.463 17.9688 253.187 18.0625 252.943 18.25C252.698 18.4323 252.523 18.6875 252.419 19.0156C252.263 19.5156 252.185 20.0625 252.185 20.6562V25H250.778ZM255.962 25V16.7031H257.22V17.8672C257.48 17.4609 257.827 17.1354 258.259 16.8906C258.691 16.6406 259.184 16.5156 259.736 16.5156C260.35 16.5156 260.853 16.6432 261.243 16.8984C261.639 17.1536 261.918 17.5104 262.079 17.9688C262.736 17 263.59 16.5156 264.642 16.5156C265.465 16.5156 266.098 16.7448 266.54 17.2031C266.983 17.6562 267.204 18.3568 267.204 19.3047V25H265.806V19.7734C265.806 19.2109 265.759 18.8073 265.665 18.5625C265.577 18.3125 265.413 18.112 265.173 17.9609C264.934 17.8099 264.652 17.7344 264.329 17.7344C263.746 17.7344 263.262 17.9297 262.876 18.3203C262.491 18.7057 262.298 19.3255 262.298 20.1797V25H260.892V19.6094C260.892 18.9844 260.777 18.5156 260.548 18.2031C260.319 17.8906 259.944 17.7344 259.423 17.7344C259.027 17.7344 258.66 17.8385 258.322 18.0469C257.988 18.2552 257.746 18.5599 257.595 18.9609C257.444 19.362 257.368 19.9401 257.368 20.6953V25H255.962ZM274.544 23.9766C274.024 24.4193 273.521 24.7318 273.037 24.9141C272.557 25.0964 272.042 25.1875 271.49 25.1875C270.578 25.1875 269.878 24.9661 269.388 24.5234C268.899 24.0755 268.654 23.5052 268.654 22.8125C268.654 22.4062 268.745 22.0365 268.927 21.7031C269.115 21.3646 269.357 21.0938 269.654 20.8906C269.956 20.6875 270.294 20.5339 270.669 20.4297C270.945 20.3568 271.362 20.2865 271.919 20.2188C273.055 20.0833 273.891 19.9219 274.427 19.7344C274.432 19.5417 274.435 19.4193 274.435 19.3672C274.435 18.7943 274.302 18.3906 274.037 18.1562C273.677 17.8385 273.143 17.6797 272.435 17.6797C271.774 17.6797 271.284 17.7969 270.966 18.0312C270.654 18.2604 270.422 18.6693 270.271 19.2578L268.896 19.0703C269.021 18.4818 269.227 18.0078 269.513 17.6484C269.8 17.2839 270.214 17.0052 270.755 16.8125C271.297 16.6146 271.925 16.5156 272.638 16.5156C273.346 16.5156 273.922 16.599 274.365 16.7656C274.807 16.9323 275.133 17.1432 275.341 17.3984C275.55 17.6484 275.695 17.9661 275.779 18.3516C275.826 18.5911 275.849 19.0234 275.849 19.6484V21.5234C275.849 22.8307 275.878 23.6589 275.935 24.0078C275.997 24.3516 276.117 24.6823 276.294 25H274.826C274.68 24.7083 274.586 24.3672 274.544 23.9766ZM274.427 20.8359C273.917 21.0443 273.151 21.2214 272.13 21.3672C271.552 21.4505 271.143 21.5443 270.904 21.6484C270.664 21.7526 270.479 21.9062 270.349 22.1094C270.219 22.3073 270.154 22.5286 270.154 22.7734C270.154 23.1484 270.294 23.4609 270.576 23.7109C270.862 23.9609 271.279 24.0859 271.826 24.0859C272.367 24.0859 272.849 23.9688 273.271 23.7344C273.693 23.4948 274.003 23.1693 274.201 22.7578C274.352 22.4401 274.427 21.9714 274.427 21.3516V20.8359ZM282.334 25V13.5469H283.888L289.904 22.5391V13.5469H291.357V25H289.802L283.787 16V25H282.334ZM298.986 23.9766C298.465 24.4193 297.963 24.7318 297.478 24.9141C296.999 25.0964 296.484 25.1875 295.932 25.1875C295.02 25.1875 294.32 24.9661 293.83 24.5234C293.34 24.0755 293.096 23.5052 293.096 22.8125C293.096 22.4062 293.187 22.0365 293.369 21.7031C293.557 21.3646 293.799 21.0938 294.096 20.8906C294.398 20.6875 294.736 20.5339 295.111 20.4297C295.387 20.3568 295.804 20.2865 296.361 20.2188C297.497 20.0833 298.333 19.9219 298.869 19.7344C298.874 19.5417 298.877 19.4193 298.877 19.3672C298.877 18.7943 298.744 18.3906 298.478 18.1562C298.119 17.8385 297.585 17.6797 296.877 17.6797C296.215 17.6797 295.726 17.7969 295.408 18.0312C295.096 18.2604 294.864 18.6693 294.713 19.2578L293.338 19.0703C293.463 18.4818 293.669 18.0078 293.955 17.6484C294.241 17.2839 294.656 17.0052 295.197 16.8125C295.739 16.6146 296.366 16.5156 297.08 16.5156C297.788 16.5156 298.364 16.599 298.807 16.7656C299.249 16.9323 299.575 17.1432 299.783 17.3984C299.991 17.6484 300.137 17.9661 300.221 18.3516C300.268 18.5911 300.291 19.0234 300.291 19.6484V21.5234C300.291 22.8307 300.32 23.6589 300.377 24.0078C300.439 24.3516 300.559 24.6823 300.736 25H299.268C299.122 24.7083 299.028 24.3672 298.986 23.9766ZM298.869 20.8359C298.359 21.0443 297.593 21.2214 296.572 21.3672C295.994 21.4505 295.585 21.5443 295.346 21.6484C295.106 21.7526 294.921 21.9062 294.791 22.1094C294.661 22.3073 294.596 22.5286 294.596 22.7734C294.596 23.1484 294.736 23.4609 295.018 23.7109C295.304 23.9609 295.721 24.0859 296.268 24.0859C296.809 24.0859 297.291 23.9688 297.713 23.7344C298.135 23.4948 298.445 23.1693 298.643 22.7578C298.794 22.4401 298.869 21.9714 298.869 21.3516V20.8359ZM307.732 21.9609L309.115 22.1406C308.964 23.0938 308.576 23.8411 307.951 24.3828C307.331 24.9193 306.568 25.1875 305.662 25.1875C304.527 25.1875 303.613 24.8177 302.92 24.0781C302.232 23.3333 301.889 22.2682 301.889 20.8828C301.889 19.987 302.037 19.2031 302.334 18.5312C302.631 17.8594 303.081 17.3568 303.686 17.0234C304.295 16.6849 304.956 16.5156 305.67 16.5156C306.571 16.5156 307.308 16.7448 307.881 17.2031C308.454 17.6562 308.821 18.3021 308.982 19.1406L307.615 19.3516C307.485 18.7943 307.253 18.375 306.92 18.0938C306.592 17.8125 306.193 17.6719 305.725 17.6719C305.016 17.6719 304.441 17.9271 303.998 18.4375C303.555 18.9427 303.334 19.7448 303.334 20.8438C303.334 21.9583 303.548 22.7682 303.975 23.2734C304.402 23.7786 304.959 24.0312 305.647 24.0312C306.199 24.0312 306.66 23.862 307.029 23.5234C307.399 23.1849 307.634 22.6641 307.732 21.9609ZM310.166 15.1641V13.5469H311.573V15.1641H310.166ZM310.166 25V16.7031H311.573V25H310.166ZM313.037 20.8516C313.037 19.3151 313.465 18.1771 314.319 17.4375C315.032 16.8229 315.902 16.5156 316.928 16.5156C318.069 16.5156 319.001 16.8906 319.725 17.6406C320.449 18.3854 320.811 19.4167 320.811 20.7344C320.811 21.8021 320.649 22.6432 320.327 23.2578C320.009 23.8672 319.543 24.3411 318.928 24.6797C318.319 25.0182 317.652 25.1875 316.928 25.1875C315.767 25.1875 314.827 24.8151 314.108 24.0703C313.394 23.3255 313.037 22.2526 313.037 20.8516ZM314.483 20.8516C314.483 21.9141 314.715 22.7109 315.178 23.2422C315.642 23.7682 316.225 24.0312 316.928 24.0312C317.626 24.0312 318.207 23.7656 318.67 23.2344C319.134 22.7031 319.366 21.8932 319.366 20.8047C319.366 19.7786 319.131 19.0026 318.662 18.4766C318.199 17.9453 317.621 17.6797 316.928 17.6797C316.225 17.6797 315.642 17.9427 315.178 18.4688C314.715 18.9948 314.483 19.7891 314.483 20.8516ZM322.307 25V16.7031H323.573V17.8828C324.182 16.9714 325.062 16.5156 326.213 16.5156C326.713 16.5156 327.172 16.6068 327.588 16.7891C328.01 16.9661 328.325 17.2005 328.534 17.4922C328.742 17.7839 328.888 18.1302 328.971 18.5312C329.023 18.7917 329.049 19.2474 329.049 19.8984V25H327.643V19.9531C327.643 19.3802 327.588 18.9531 327.479 18.6719C327.37 18.3854 327.174 18.1589 326.893 17.9922C326.617 17.8203 326.292 17.7344 325.917 17.7344C325.318 17.7344 324.799 17.9245 324.362 18.3047C323.93 18.6849 323.713 19.4062 323.713 20.4688V25H322.307ZM336.467 23.9766C335.947 24.4193 335.444 24.7318 334.96 24.9141C334.481 25.0964 333.965 25.1875 333.413 25.1875C332.501 25.1875 331.801 24.9661 331.311 24.5234C330.822 24.0755 330.577 23.5052 330.577 22.8125C330.577 22.4062 330.668 22.0365 330.85 21.7031C331.038 21.3646 331.28 21.0938 331.577 20.8906C331.879 20.6875 332.217 20.5339 332.592 20.4297C332.869 20.3568 333.285 20.2865 333.842 20.2188C334.978 20.0833 335.814 19.9219 336.35 19.7344C336.356 19.5417 336.358 19.4193 336.358 19.3672C336.358 18.7943 336.225 18.3906 335.96 18.1562C335.6 17.8385 335.066 17.6797 334.358 17.6797C333.697 17.6797 333.207 17.7969 332.889 18.0312C332.577 18.2604 332.345 18.6693 332.194 19.2578L330.819 19.0703C330.944 18.4818 331.15 18.0078 331.436 17.6484C331.723 17.2839 332.137 17.0052 332.678 16.8125C333.22 16.6146 333.848 16.5156 334.561 16.5156C335.27 16.5156 335.845 16.599 336.288 16.7656C336.731 16.9323 337.056 17.1432 337.264 17.3984C337.473 17.6484 337.619 17.9661 337.702 18.3516C337.749 18.5911 337.772 19.0234 337.772 19.6484V21.5234C337.772 22.8307 337.801 23.6589 337.858 24.0078C337.921 24.3516 338.04 24.6823 338.217 25H336.749C336.603 24.7083 336.509 24.3672 336.467 23.9766ZM336.35 20.8359C335.84 21.0443 335.074 21.2214 334.053 21.3672C333.475 21.4505 333.066 21.5443 332.827 21.6484C332.587 21.7526 332.402 21.9062 332.272 22.1094C332.142 22.3073 332.077 22.5286 332.077 22.7734C332.077 23.1484 332.217 23.4609 332.499 23.7109C332.785 23.9609 333.202 24.0859 333.749 24.0859C334.29 24.0859 334.772 23.9688 335.194 23.7344C335.616 23.4948 335.926 23.1693 336.124 22.7578C336.275 22.4401 336.35 21.9714 336.35 21.3516V20.8359ZM339.768 25V13.5469H341.175V25H339.768ZM352.878 25V23.9531C352.352 24.776 351.579 25.1875 350.558 25.1875C349.896 25.1875 349.287 25.0052 348.73 24.6406C348.178 24.276 347.748 23.7682 347.441 23.1172C347.139 22.4609 346.988 21.7083 346.988 20.8594C346.988 20.0312 347.126 19.2812 347.402 18.6094C347.678 17.9323 348.092 17.4141 348.644 17.0547C349.196 16.6953 349.813 16.5156 350.495 16.5156C350.995 16.5156 351.441 16.6224 351.831 16.8359C352.222 17.0443 352.54 17.3177 352.784 17.6562V13.5469H354.183V25H352.878ZM348.433 20.8594C348.433 21.9219 348.657 22.7161 349.105 23.2422C349.553 23.7682 350.081 24.0312 350.691 24.0312C351.305 24.0312 351.826 23.7812 352.253 23.2812C352.685 22.776 352.902 22.0078 352.902 20.9766C352.902 19.8411 352.683 19.0078 352.245 18.4766C351.808 17.9453 351.269 17.6797 350.628 17.6797C350.003 17.6797 349.48 17.9349 349.058 18.4453C348.641 18.9557 348.433 19.7604 348.433 20.8594ZM361.921 22.3281L363.374 22.5078C363.145 23.3568 362.721 24.0156 362.101 24.4844C361.481 24.9531 360.689 25.1875 359.726 25.1875C358.512 25.1875 357.549 24.8151 356.835 24.0703C356.127 23.3203 355.773 22.2708 355.773 20.9219C355.773 19.526 356.132 18.4427 356.851 17.6719C357.57 16.901 358.502 16.5156 359.648 16.5156C360.757 16.5156 361.663 16.8932 362.367 17.6484C363.07 18.4036 363.421 19.4661 363.421 20.8359C363.421 20.9193 363.419 21.0443 363.413 21.2109H357.226C357.278 22.1224 357.536 22.8203 357.999 23.3047C358.463 23.7891 359.041 24.0312 359.734 24.0312C360.249 24.0312 360.689 23.8958 361.054 23.625C361.419 23.3542 361.708 22.9219 361.921 22.3281ZM357.304 20.0547H361.937C361.874 19.3568 361.697 18.8333 361.406 18.4844C360.958 17.9427 360.377 17.6719 359.663 17.6719C359.018 17.6719 358.473 17.888 358.031 18.3203C357.593 18.7526 357.351 19.3307 357.304 20.0547ZM369.461 25V13.5469H373.406C374.297 13.5469 374.976 13.6016 375.445 13.7109C376.101 13.862 376.661 14.1354 377.125 14.5312C377.729 15.0417 378.179 15.6953 378.476 16.4922C378.778 17.2839 378.929 18.1901 378.929 19.2109C378.929 20.0807 378.828 20.8516 378.625 21.5234C378.422 22.1953 378.161 22.7526 377.843 23.1953C377.526 23.6328 377.177 23.9792 376.797 24.2344C376.422 24.4844 375.966 24.6745 375.429 24.8047C374.898 24.9349 374.286 25 373.593 25H369.461ZM370.976 23.6484H373.422C374.177 23.6484 374.768 23.5781 375.195 23.4375C375.627 23.2969 375.971 23.099 376.226 22.8438C376.586 22.4844 376.864 22.0026 377.062 21.3984C377.265 20.7891 377.367 20.0521 377.367 19.1875C377.367 17.9896 377.169 17.0703 376.773 16.4297C376.383 15.7839 375.906 15.3516 375.343 15.1328C374.937 14.9766 374.284 14.8984 373.383 14.8984H370.976V23.6484ZM386.098 23.9766C385.577 24.4193 385.074 24.7318 384.59 24.9141C384.111 25.0964 383.595 25.1875 383.043 25.1875C382.131 25.1875 381.431 24.9661 380.941 24.5234C380.452 24.0755 380.207 23.5052 380.207 22.8125C380.207 22.4062 380.298 22.0365 380.48 21.7031C380.668 21.3646 380.91 21.0938 381.207 20.8906C381.509 20.6875 381.848 20.5339 382.223 20.4297C382.499 20.3568 382.915 20.2865 383.473 20.2188C384.608 20.0833 385.444 19.9219 385.98 19.7344C385.986 19.5417 385.988 19.4193 385.988 19.3672C385.988 18.7943 385.855 18.3906 385.59 18.1562C385.23 17.8385 384.696 17.6797 383.988 17.6797C383.327 17.6797 382.837 17.7969 382.519 18.0312C382.207 18.2604 381.975 18.6693 381.824 19.2578L380.449 19.0703C380.574 18.4818 380.78 18.0078 381.066 17.6484C381.353 17.2839 381.767 17.0052 382.308 16.8125C382.85 16.6146 383.478 16.5156 384.191 16.5156C384.9 16.5156 385.475 16.599 385.918 16.7656C386.361 16.9323 386.686 17.1432 386.894 17.3984C387.103 17.6484 387.249 17.9661 387.332 18.3516C387.379 18.5911 387.402 19.0234 387.402 19.6484V21.5234C387.402 22.8307 387.431 23.6589 387.488 24.0078C387.551 24.3516 387.67 24.6823 387.848 25H386.379C386.233 24.7083 386.139 24.3672 386.098 23.9766ZM385.98 20.8359C385.47 21.0443 384.704 21.2214 383.683 21.3672C383.105 21.4505 382.696 21.5443 382.457 21.6484C382.217 21.7526 382.032 21.9062 381.902 22.1094C381.772 22.3073 381.707 22.5286 381.707 22.7734C381.707 23.1484 381.848 23.4609 382.129 23.7109C382.415 23.9609 382.832 24.0859 383.379 24.0859C383.92 24.0859 384.402 23.9688 384.824 23.7344C385.246 23.4948 385.556 23.1693 385.754 22.7578C385.905 22.4401 385.98 21.9714 385.98 21.3516V20.8359ZM392.5 23.7422L392.703 24.9844C392.307 25.0677 391.953 25.1094 391.641 25.1094C391.13 25.1094 390.734 25.0286 390.453 24.8672C390.172 24.7057 389.974 24.4948 389.859 24.2344C389.745 23.9688 389.688 23.4141 389.688 22.5703V17.7969H388.656V16.7031H389.688V14.6484L391.086 13.8047V16.7031H392.5V17.7969H391.086V22.6484C391.086 23.0495 391.109 23.3073 391.156 23.4219C391.208 23.5365 391.289 23.6276 391.398 23.6953C391.513 23.763 391.674 23.7969 391.883 23.7969C392.039 23.7969 392.245 23.7786 392.5 23.7422ZM393.199 20.8516C393.199 19.3151 393.626 18.1771 394.481 17.4375C395.194 16.8229 396.064 16.5156 397.09 16.5156C398.231 16.5156 399.163 16.8906 399.887 17.6406C400.611 18.3854 400.973 19.4167 400.973 20.7344C400.973 21.8021 400.811 22.6432 400.488 23.2578C400.171 23.8672 399.705 24.3411 399.09 24.6797C398.481 25.0182 397.814 25.1875 397.09 25.1875C395.929 25.1875 394.988 24.8151 394.27 24.0703C393.556 23.3255 393.199 22.2526 393.199 20.8516ZM394.645 20.8516C394.645 21.9141 394.876 22.7109 395.34 23.2422C395.804 23.7682 396.387 24.0312 397.09 24.0312C397.788 24.0312 398.369 23.7656 398.832 23.2344C399.296 22.7031 399.527 21.8932 399.527 20.8047C399.527 19.7786 399.293 19.0026 398.824 18.4766C398.361 17.9453 397.783 17.6797 397.09 17.6797C396.387 17.6797 395.804 17.9427 395.34 18.4688C394.876 18.9948 394.645 19.7891 394.645 20.8516ZM401.907 22.5234L403.297 22.3047C403.375 22.862 403.591 23.2891 403.946 23.5859C404.305 23.8828 404.805 24.0312 405.446 24.0312C406.091 24.0312 406.571 23.901 406.883 23.6406C407.196 23.375 407.352 23.0651 407.352 22.7109C407.352 22.3932 407.214 22.1432 406.938 21.9609C406.745 21.8359 406.266 21.6771 405.5 21.4844C404.469 21.224 403.753 21 403.352 20.8125C402.956 20.6198 402.654 20.3568 402.446 20.0234C402.242 19.6849 402.141 19.3125 402.141 18.9062C402.141 18.5365 402.224 18.1953 402.391 17.8828C402.563 17.5651 402.795 17.3021 403.086 17.0938C403.305 16.9323 403.602 16.7969 403.977 16.6875C404.357 16.5729 404.763 16.5156 405.196 16.5156C405.847 16.5156 406.417 16.6094 406.907 16.7969C407.401 16.9844 407.766 17.2396 408 17.5625C408.235 17.8802 408.396 18.3073 408.485 18.8438L407.11 19.0312C407.047 18.6042 406.865 18.2708 406.563 18.0312C406.266 17.7917 405.844 17.6719 405.297 17.6719C404.651 17.6719 404.19 17.7786 403.914 17.9922C403.638 18.2057 403.5 18.4557 403.5 18.7422C403.5 18.9245 403.558 19.0885 403.672 19.2344C403.787 19.3854 403.966 19.5104 404.211 19.6094C404.352 19.6615 404.766 19.7812 405.453 19.9688C406.448 20.2344 407.141 20.4531 407.532 20.625C407.927 20.7917 408.237 21.0365 408.461 21.3594C408.685 21.6823 408.797 22.0833 408.797 22.5625C408.797 23.0312 408.659 23.474 408.383 23.8906C408.112 24.3021 407.719 24.6224 407.203 24.8516C406.688 25.0755 406.104 25.1875 405.453 25.1875C404.375 25.1875 403.552 24.9635 402.985 24.5156C402.422 24.0677 402.063 23.4036 401.907 22.5234ZM420.141 20.5078V19.1641L424.993 19.1562V23.4062C424.248 24 423.48 24.4479 422.688 24.75C421.896 25.0469 421.084 25.1953 420.251 25.1953C419.126 25.1953 418.102 24.9557 417.18 24.4766C416.264 23.9922 415.571 23.2943 415.102 22.3828C414.633 21.4714 414.399 20.4531 414.399 19.3281C414.399 18.2135 414.631 17.1745 415.094 16.2109C415.563 15.2422 416.235 14.5234 417.11 14.0547C417.985 13.5859 418.993 13.3516 420.133 13.3516C420.962 13.3516 421.709 13.487 422.376 13.7578C423.048 14.0234 423.574 14.3958 423.954 14.875C424.334 15.3542 424.623 15.9792 424.821 16.75L423.454 17.125C423.282 16.5417 423.068 16.0833 422.813 15.75C422.558 15.4167 422.193 15.151 421.719 14.9531C421.245 14.75 420.719 14.6484 420.141 14.6484C419.449 14.6484 418.85 14.7552 418.344 14.9688C417.839 15.1771 417.43 15.4531 417.118 15.7969C416.811 16.1406 416.571 16.5182 416.399 16.9297C416.107 17.638 415.962 18.4062 415.962 19.2344C415.962 20.2552 416.136 21.1094 416.485 21.7969C416.839 22.4844 417.352 22.9948 418.024 23.3281C418.696 23.6615 419.409 23.8281 420.165 23.8281C420.821 23.8281 421.462 23.7031 422.087 23.4531C422.712 23.1979 423.186 22.9271 423.508 22.6406V20.5078H420.141ZM432.575 22.3281L434.028 22.5078C433.799 23.3568 433.374 24.0156 432.755 24.4844C432.135 24.9531 431.343 25.1875 430.38 25.1875C429.166 25.1875 428.203 24.8151 427.489 24.0703C426.781 23.3203 426.427 22.2708 426.427 20.9219C426.427 19.526 426.786 18.4427 427.505 17.6719C428.223 16.901 429.156 16.5156 430.302 16.5156C431.411 16.5156 432.317 16.8932 433.02 17.6484C433.723 18.4036 434.075 19.4661 434.075 20.8359C434.075 20.9193 434.072 21.0443 434.067 21.2109H427.88C427.932 22.1224 428.19 22.8203 428.653 23.3047C429.117 23.7891 429.695 24.0312 430.387 24.0312C430.903 24.0312 431.343 23.8958 431.708 23.625C432.072 23.3542 432.361 22.9219 432.575 22.3281ZM427.958 20.0547H432.591C432.528 19.3568 432.351 18.8333 432.059 18.4844C431.611 17.9427 431.031 17.6719 430.317 17.6719C429.671 17.6719 429.127 17.888 428.684 18.3203C428.247 18.7526 428.005 19.3307 427.958 20.0547ZM435.118 20.8516C435.118 19.3151 435.545 18.1771 436.399 17.4375C437.113 16.8229 437.983 16.5156 439.009 16.5156C440.149 16.5156 441.082 16.8906 441.806 17.6406C442.53 18.3854 442.892 19.4167 442.892 20.7344C442.892 21.8021 442.73 22.6432 442.407 23.2578C442.089 23.8672 441.623 24.3411 441.009 24.6797C440.399 25.0182 439.733 25.1875 439.009 25.1875C437.847 25.1875 436.907 24.8151 436.188 24.0703C435.475 23.3255 435.118 22.2526 435.118 20.8516ZM436.563 20.8516C436.563 21.9141 436.795 22.7109 437.259 23.2422C437.722 23.7682 438.306 24.0312 439.009 24.0312C439.707 24.0312 440.287 23.7656 440.751 23.2344C441.214 22.7031 441.446 21.8932 441.446 20.8047C441.446 19.7786 441.212 19.0026 440.743 18.4766C440.28 17.9453 439.701 17.6797 439.009 17.6797C438.306 17.6797 437.722 17.9427 437.259 18.4688C436.795 18.9948 436.563 19.7891 436.563 20.8516ZM444.372 25V16.7031H445.638V17.9609C445.961 17.3724 446.258 16.9844 446.528 16.7969C446.804 16.6094 447.107 16.5156 447.435 16.5156C447.909 16.5156 448.39 16.6667 448.88 16.9688L448.396 18.2734C448.052 18.0703 447.708 17.9688 447.364 17.9688C447.057 17.9688 446.781 18.0625 446.536 18.25C446.291 18.4323 446.117 18.6875 446.013 19.0156C445.857 19.5156 445.778 20.0625 445.778 20.6562V25H444.372ZM449.54 25V16.7031H450.806V17.9609C451.129 17.3724 451.426 16.9844 451.697 16.7969C451.973 16.6094 452.275 16.5156 452.603 16.5156C453.077 16.5156 453.559 16.6667 454.048 16.9688L453.564 18.2734C453.22 18.0703 452.876 17.9688 452.533 17.9688C452.225 17.9688 451.949 18.0625 451.704 18.25C451.46 18.4323 451.285 18.6875 451.181 19.0156C451.025 19.5156 450.947 20.0625 450.947 20.6562V25H449.54ZM460.404 22.3281L461.857 22.5078C461.628 23.3568 461.203 24.0156 460.583 24.4844C459.964 24.9531 459.172 25.1875 458.208 25.1875C456.995 25.1875 456.031 24.8151 455.318 24.0703C454.609 23.3203 454.255 22.2708 454.255 20.9219C454.255 19.526 454.615 18.4427 455.333 17.6719C456.052 16.901 456.984 16.5156 458.13 16.5156C459.24 16.5156 460.146 16.8932 460.849 17.6484C461.552 18.4036 461.904 19.4661 461.904 20.8359C461.904 20.9193 461.901 21.0443 461.896 21.2109H455.708C455.761 22.1224 456.018 22.8203 456.482 23.3047C456.945 23.7891 457.524 24.0312 458.216 24.0312C458.732 24.0312 459.172 23.8958 459.537 23.625C459.901 23.3542 460.19 22.9219 460.404 22.3281ZM455.787 20.0547H460.419C460.357 19.3568 460.18 18.8333 459.888 18.4844C459.44 17.9427 458.859 17.6719 458.146 17.6719C457.5 17.6719 456.956 17.888 456.513 18.3203C456.076 18.7526 455.833 19.3307 455.787 20.0547ZM463.806 25V17.7969H462.564V16.7031H463.806V15.8203C463.806 15.263 463.856 14.849 463.955 14.5781C464.09 14.2135 464.327 13.9193 464.666 13.6953C465.009 13.4661 465.489 13.3516 466.103 13.3516C466.499 13.3516 466.936 13.3984 467.416 13.4922L467.205 14.7188C466.913 14.6667 466.637 14.6406 466.377 14.6406C465.949 14.6406 465.647 14.7318 465.47 14.9141C465.293 15.0964 465.205 15.4375 465.205 15.9375V16.7031H466.822V17.7969H465.205V25H463.806ZM473.443 22.3281L474.896 22.5078C474.667 23.3568 474.243 24.0156 473.623 24.4844C473.003 24.9531 472.211 25.1875 471.248 25.1875C470.034 25.1875 469.071 24.8151 468.357 24.0703C467.649 23.3203 467.295 22.2708 467.295 20.9219C467.295 19.526 467.654 18.4427 468.373 17.6719C469.092 16.901 470.024 16.5156 471.17 16.5156C472.279 16.5156 473.185 16.8932 473.888 17.6484C474.592 18.4036 474.943 19.4661 474.943 20.8359C474.943 20.9193 474.941 21.0443 474.935 21.2109H468.748C468.8 22.1224 469.058 22.8203 469.521 23.3047C469.985 23.7891 470.563 24.0312 471.256 24.0312C471.771 24.0312 472.211 23.8958 472.576 23.625C472.941 23.3542 473.23 22.9219 473.443 22.3281ZM468.826 20.0547H473.459C473.396 19.3568 473.219 18.8333 472.927 18.4844C472.48 17.9427 471.899 17.6719 471.185 17.6719C470.539 17.6719 469.995 17.888 469.552 18.3203C469.115 18.7526 468.873 19.3307 468.826 20.0547ZM476.494 25V16.7031H477.76V17.9609C478.083 17.3724 478.379 16.9844 478.65 16.7969C478.926 16.6094 479.228 16.5156 479.557 16.5156C480.031 16.5156 480.512 16.6667 481.002 16.9688L480.517 18.2734C480.174 18.0703 479.83 17.9688 479.486 17.9688C479.179 17.9688 478.903 18.0625 478.658 18.25C478.413 18.4323 478.239 18.6875 478.135 19.0156C477.978 19.5156 477.9 20.0625 477.9 20.6562V25H476.494ZM487.358 22.3281L488.811 22.5078C488.581 23.3568 488.157 24.0156 487.537 24.4844C486.917 24.9531 486.126 25.1875 485.162 25.1875C483.949 25.1875 482.985 24.8151 482.272 24.0703C481.563 23.3203 481.209 22.2708 481.209 20.9219C481.209 19.526 481.568 18.4427 482.287 17.6719C483.006 16.901 483.938 16.5156 485.084 16.5156C486.193 16.5156 487.1 16.8932 487.803 17.6484C488.506 18.4036 488.858 19.4661 488.858 20.8359C488.858 20.9193 488.855 21.0443 488.85 21.2109H482.662C482.714 22.1224 482.972 22.8203 483.436 23.3047C483.899 23.7891 484.477 24.0312 485.17 24.0312C485.686 24.0312 486.126 23.8958 486.49 23.625C486.855 23.3542 487.144 22.9219 487.358 22.3281ZM482.74 20.0547H487.373C487.311 19.3568 487.134 18.8333 486.842 18.4844C486.394 17.9427 485.813 17.6719 485.1 17.6719C484.454 17.6719 483.91 17.888 483.467 18.3203C483.029 18.7526 482.787 19.3307 482.74 20.0547ZM490.424 25V16.7031H491.69V17.8828C492.299 16.9714 493.179 16.5156 494.33 16.5156C494.83 16.5156 495.289 16.6068 495.705 16.7891C496.127 16.9661 496.442 17.2005 496.651 17.4922C496.859 17.7839 497.005 18.1302 497.088 18.5312C497.14 18.7917 497.166 19.2474 497.166 19.8984V25H495.76V19.9531C495.76 19.3802 495.705 18.9531 495.596 18.6719C495.487 18.3854 495.291 18.1589 495.01 17.9922C494.734 17.8203 494.408 17.7344 494.033 17.7344C493.434 17.7344 492.916 17.9245 492.479 18.3047C492.046 18.6849 491.83 19.4062 491.83 20.4688V25H490.424ZM504.584 21.9609L505.967 22.1406C505.816 23.0938 505.428 23.8411 504.803 24.3828C504.183 24.9193 503.42 25.1875 502.514 25.1875C501.379 25.1875 500.465 24.8177 499.772 24.0781C499.084 23.3333 498.741 22.2682 498.741 20.8828C498.741 19.987 498.889 19.2031 499.186 18.5312C499.483 17.8594 499.933 17.3568 500.538 17.0234C501.147 16.6849 501.808 16.5156 502.522 16.5156C503.423 16.5156 504.16 16.7448 504.733 17.2031C505.306 17.6562 505.673 18.3021 505.834 19.1406L504.467 19.3516C504.337 18.7943 504.105 18.375 503.772 18.0938C503.444 17.8125 503.045 17.6719 502.577 17.6719C501.868 17.6719 501.293 17.9271 500.85 18.4375C500.407 18.9427 500.186 19.7448 500.186 20.8438C500.186 21.9583 500.399 22.7682 500.827 23.2734C501.254 23.7786 501.811 24.0312 502.498 24.0312C503.051 24.0312 503.511 23.862 503.881 23.5234C504.251 23.1849 504.485 22.6641 504.584 21.9609ZM507.018 15.1641V13.5469H508.424V15.1641H507.018ZM507.018 25V16.7031H508.424V25H507.018ZM515.827 23.9766C515.306 24.4193 514.803 24.7318 514.319 24.9141C513.84 25.0964 513.324 25.1875 512.772 25.1875C511.861 25.1875 511.16 24.9661 510.671 24.5234C510.181 24.0755 509.936 23.5052 509.936 22.8125C509.936 22.4062 510.027 22.0365 510.21 21.7031C510.397 21.3646 510.639 21.0938 510.936 20.8906C511.238 20.6875 511.577 20.5339 511.952 20.4297C512.228 20.3568 512.645 20.2865 513.202 20.2188C514.337 20.0833 515.173 19.9219 515.71 19.7344C515.715 19.5417 515.717 19.4193 515.717 19.3672C515.717 18.7943 515.585 18.3906 515.319 18.1562C514.96 17.8385 514.426 17.6797 513.717 17.6797C513.056 17.6797 512.566 17.7969 512.249 18.0312C511.936 18.2604 511.704 18.6693 511.553 19.2578L510.178 19.0703C510.303 18.4818 510.509 18.0078 510.796 17.6484C511.082 17.2839 511.496 17.0052 512.038 16.8125C512.579 16.6146 513.207 16.5156 513.921 16.5156C514.629 16.5156 515.204 16.599 515.647 16.7656C516.09 16.9323 516.415 17.1432 516.624 17.3984C516.832 17.6484 516.978 17.9661 517.061 18.3516C517.108 18.5911 517.132 19.0234 517.132 19.6484V21.5234C517.132 22.8307 517.16 23.6589 517.217 24.0078C517.28 24.3516 517.4 24.6823 517.577 25H516.108C515.962 24.7083 515.869 24.3672 515.827 23.9766ZM515.71 20.8359C515.199 21.0443 514.434 21.2214 513.413 21.3672C512.835 21.4505 512.426 21.5443 512.186 21.6484C511.947 21.7526 511.762 21.9062 511.632 22.1094C511.501 22.3073 511.436 22.5286 511.436 22.7734C511.436 23.1484 511.577 23.4609 511.858 23.7109C512.145 23.9609 512.561 24.0859 513.108 24.0859C513.65 24.0859 514.132 23.9688 514.553 23.7344C514.975 23.4948 515.285 23.1693 515.483 22.7578C515.634 22.4401 515.71 21.9714 515.71 21.3516V20.8359ZM524.542 25V23.9531C524.016 24.776 523.242 25.1875 522.222 25.1875C521.56 25.1875 520.951 25.0052 520.393 24.6406C519.841 24.276 519.412 23.7682 519.104 23.1172C518.802 22.4609 518.651 21.7083 518.651 20.8594C518.651 20.0312 518.789 19.2812 519.065 18.6094C519.341 17.9323 519.755 17.4141 520.307 17.0547C520.86 16.6953 521.477 16.5156 522.159 16.5156C522.659 16.5156 523.104 16.6224 523.495 16.8359C523.886 17.0443 524.203 17.3177 524.448 17.6562V13.5469H525.847V25H524.542ZM520.097 20.8594C520.097 21.9219 520.321 22.7161 520.768 23.2422C521.216 23.7682 521.745 24.0312 522.354 24.0312C522.969 24.0312 523.49 23.7812 523.917 23.2812C524.349 22.776 524.565 22.0078 524.565 20.9766C524.565 19.8411 524.347 19.0078 523.909 18.4766C523.472 17.9453 522.932 17.6797 522.292 17.6797C521.667 17.6797 521.143 17.9349 520.722 18.4453C520.305 18.9557 520.097 19.7604 520.097 20.8594ZM527.382 20.8516C527.382 19.3151 527.809 18.1771 528.663 17.4375C529.377 16.8229 530.246 16.5156 531.272 16.5156C532.413 16.5156 533.345 16.8906 534.069 17.6406C534.793 18.3854 535.155 19.4167 535.155 20.7344C535.155 21.8021 534.994 22.6432 534.671 23.2578C534.353 23.8672 533.887 24.3411 533.272 24.6797C532.663 25.0182 531.996 25.1875 531.272 25.1875C530.111 25.1875 529.171 24.8151 528.452 24.0703C527.739 23.3255 527.382 22.2526 527.382 20.8516ZM528.827 20.8516C528.827 21.9141 529.059 22.7109 529.522 23.2422C529.986 23.7682 530.569 24.0312 531.272 24.0312C531.97 24.0312 532.551 23.7656 533.015 23.2344C533.478 22.7031 533.71 21.8932 533.71 20.8047C533.71 19.7786 533.476 19.0026 533.007 18.4766C532.543 17.9453 531.965 17.6797 531.272 17.6797C530.569 17.6797 529.986 17.9427 529.522 18.4688C529.059 18.9948 528.827 19.7891 528.827 20.8516ZM536.089 22.5234L537.48 22.3047C537.558 22.862 537.774 23.2891 538.128 23.5859C538.487 23.8828 538.987 24.0312 539.628 24.0312C540.274 24.0312 540.753 23.901 541.066 23.6406C541.378 23.375 541.534 23.0651 541.534 22.7109C541.534 22.3932 541.396 22.1432 541.12 21.9609C540.928 21.8359 540.448 21.6771 539.683 21.4844C538.652 21.224 537.935 21 537.534 20.8125C537.139 20.6198 536.836 20.3568 536.628 20.0234C536.425 19.6849 536.323 19.3125 536.323 18.9062C536.323 18.5365 536.407 18.1953 536.573 17.8828C536.745 17.5651 536.977 17.3021 537.269 17.0938C537.487 16.9323 537.784 16.7969 538.159 16.6875C538.54 16.5729 538.946 16.5156 539.378 16.5156C540.029 16.5156 540.599 16.6094 541.089 16.7969C541.584 16.9844 541.948 17.2396 542.183 17.5625C542.417 17.8802 542.579 18.3073 542.667 18.8438L541.292 19.0312C541.23 18.6042 541.047 18.2708 540.745 18.0312C540.448 17.7917 540.027 17.6719 539.48 17.6719C538.834 17.6719 538.373 17.7786 538.097 17.9922C537.821 18.2057 537.683 18.4557 537.683 18.7422C537.683 18.9245 537.74 19.0885 537.855 19.2344C537.969 19.3854 538.149 19.5104 538.394 19.6094C538.534 19.6615 538.948 19.7812 539.636 19.9688C540.631 20.2344 541.323 20.4531 541.714 20.625C542.11 20.7917 542.42 21.0365 542.644 21.3594C542.868 21.6823 542.98 22.0833 542.98 22.5625C542.98 23.0312 542.842 23.474 542.566 23.8906C542.295 24.3021 541.902 24.6224 541.386 24.8516C540.87 25.0755 540.287 25.1875 539.636 25.1875C538.558 25.1875 537.735 24.9635 537.167 24.5156C536.605 24.0677 536.245 23.4036 536.089 22.5234ZM554.324 20.5078V19.1641L559.175 19.1562V23.4062C558.431 24 557.662 24.4479 556.871 24.75C556.079 25.0469 555.266 25.1953 554.433 25.1953C553.308 25.1953 552.285 24.9557 551.363 24.4766C550.446 23.9922 549.753 23.2943 549.285 22.3828C548.816 21.4714 548.582 20.4531 548.582 19.3281C548.582 18.2135 548.813 17.1745 549.277 16.2109C549.746 15.2422 550.418 14.5234 551.293 14.0547C552.168 13.5859 553.175 13.3516 554.316 13.3516C555.144 13.3516 555.891 13.487 556.558 13.7578C557.23 14.0234 557.756 14.3958 558.136 14.875C558.516 15.3542 558.806 15.9792 559.003 16.75L557.636 17.125C557.464 16.5417 557.251 16.0833 556.996 15.75C556.74 15.4167 556.376 15.151 555.902 14.9531C555.428 14.75 554.902 14.6484 554.324 14.6484C553.631 14.6484 553.032 14.7552 552.527 14.9688C552.022 15.1771 551.613 15.4531 551.3 15.7969C550.993 16.1406 550.753 16.5182 550.582 16.9297C550.29 17.638 550.144 18.4062 550.144 19.2344C550.144 20.2552 550.319 21.1094 550.668 21.7969C551.022 22.4844 551.535 22.9948 552.207 23.3281C552.878 23.6615 553.592 23.8281 554.347 23.8281C555.003 23.8281 555.644 23.7031 556.269 23.4531C556.894 23.1979 557.368 22.9271 557.691 22.6406V20.5078H554.324ZM566.758 22.3281L568.211 22.5078C567.981 23.3568 567.557 24.0156 566.937 24.4844C566.317 24.9531 565.526 25.1875 564.562 25.1875C563.349 25.1875 562.385 24.8151 561.672 24.0703C560.963 23.3203 560.609 22.2708 560.609 20.9219C560.609 19.526 560.968 18.4427 561.687 17.6719C562.406 16.901 563.338 16.5156 564.484 16.5156C565.593 16.5156 566.5 16.8932 567.203 17.6484C567.906 18.4036 568.258 19.4661 568.258 20.8359C568.258 20.9193 568.255 21.0443 568.25 21.2109H562.062C562.114 22.1224 562.372 22.8203 562.836 23.3047C563.299 23.7891 563.877 24.0312 564.57 24.0312C565.086 24.0312 565.526 23.8958 565.89 23.625C566.255 23.3542 566.544 22.9219 566.758 22.3281ZM562.14 20.0547H566.773C566.711 19.3568 566.534 18.8333 566.242 18.4844C565.794 17.9427 565.213 17.6719 564.5 17.6719C563.854 17.6719 563.31 17.888 562.867 18.3203C562.429 18.7526 562.187 19.3307 562.14 20.0547ZM569.301 20.8516C569.301 19.3151 569.728 18.1771 570.582 17.4375C571.295 16.8229 572.165 16.5156 573.191 16.5156C574.332 16.5156 575.264 16.8906 575.988 17.6406C576.712 18.3854 577.074 19.4167 577.074 20.7344C577.074 21.8021 576.913 22.6432 576.59 23.2578C576.272 23.8672 575.806 24.3411 575.191 24.6797C574.582 25.0182 573.915 25.1875 573.191 25.1875C572.03 25.1875 571.09 24.8151 570.371 24.0703C569.657 23.3255 569.301 22.2526 569.301 20.8516ZM570.746 20.8516C570.746 21.9141 570.978 22.7109 571.441 23.2422C571.905 23.7682 572.488 24.0312 573.191 24.0312C573.889 24.0312 574.47 23.7656 574.933 23.2344C575.397 22.7031 575.629 21.8932 575.629 20.8047C575.629 19.7786 575.394 19.0026 574.926 18.4766C574.462 17.9453 573.884 17.6797 573.191 17.6797C572.488 17.6797 571.905 17.9427 571.441 18.4688C570.978 18.9948 570.746 19.7891 570.746 20.8516ZM583.043 25V13.5469H587.363C588.124 13.5469 588.705 13.5833 589.106 13.6562C589.668 13.75 590.139 13.9297 590.52 14.1953C590.9 14.4557 591.205 14.8229 591.434 15.2969C591.668 15.7708 591.785 16.2917 591.785 16.8594C591.785 17.8333 591.475 18.6589 590.856 19.3359C590.236 20.0078 589.116 20.3438 587.496 20.3438H584.559V25H583.043ZM584.559 18.9922H587.52C588.499 18.9922 589.194 18.8099 589.606 18.4453C590.017 18.0807 590.223 17.5677 590.223 16.9062C590.223 16.4271 590.1 16.0182 589.856 15.6797C589.616 15.3359 589.298 15.1094 588.902 15C588.647 14.9323 588.176 14.8984 587.488 14.8984H584.559V18.9922ZM599.055 22.3281L600.508 22.5078C600.279 23.3568 599.854 24.0156 599.235 24.4844C598.615 24.9531 597.823 25.1875 596.86 25.1875C595.646 25.1875 594.683 24.8151 593.969 24.0703C593.261 23.3203 592.907 22.2708 592.907 20.9219C592.907 19.526 593.266 18.4427 593.985 17.6719C594.703 16.901 595.636 16.5156 596.782 16.5156C597.891 16.5156 598.797 16.8932 599.5 17.6484C600.203 18.4036 600.555 19.4661 600.555 20.8359C600.555 20.9193 600.552 21.0443 600.547 21.2109H594.36C594.412 22.1224 594.67 22.8203 595.133 23.3047C595.597 23.7891 596.175 24.0312 596.867 24.0312C597.383 24.0312 597.823 23.8958 598.188 23.625C598.552 23.3542 598.841 22.9219 599.055 22.3281ZM594.438 20.0547H599.071C599.008 19.3568 598.831 18.8333 598.539 18.4844C598.091 17.9427 597.511 17.6719 596.797 17.6719C596.151 17.6719 595.607 17.888 595.164 18.3203C594.727 18.7526 594.485 19.3307 594.438 20.0547ZM602.106 25V16.7031H603.372V17.9609C603.694 17.3724 603.991 16.9844 604.262 16.7969C604.538 16.6094 604.84 16.5156 605.168 16.5156C605.642 16.5156 606.124 16.6667 606.614 16.9688L606.129 18.2734C605.786 18.0703 605.442 17.9688 605.098 17.9688C604.791 17.9688 604.515 18.0625 604.27 18.25C604.025 18.4323 603.851 18.6875 603.747 19.0156C603.59 19.5156 603.512 20.0625 603.512 20.6562V25H602.106ZM612.727 25V23.7812C612.081 24.7188 611.204 25.1875 610.094 25.1875C609.605 25.1875 609.146 25.0938 608.719 24.9062C608.297 24.7188 607.982 24.4844 607.774 24.2031C607.571 23.9167 607.428 23.5677 607.344 23.1562C607.287 22.8802 607.258 22.4427 607.258 21.8438V16.7031H608.665V21.3047C608.665 22.0391 608.693 22.5339 608.751 22.7891C608.839 23.1589 609.027 23.4505 609.313 23.6641C609.6 23.8724 609.954 23.9766 610.376 23.9766C610.797 23.9766 611.193 23.8698 611.563 23.6562C611.933 23.4375 612.193 23.1432 612.344 22.7734C612.501 22.3984 612.579 21.8568 612.579 21.1484V16.7031H613.985V25H612.727ZM609.774 15.6719L610.813 13.4844H612.657L610.938 15.6719H609.774Z" fill="white"/>
<rect x="185" y="4" width="1" height="32" fill="white"/>
</svg>
