<svg width="28" height="29" viewBox="0 0 28 29" fill="none" xmlns="http://www.w3.org/2000/svg">
<path d="M19.4038 18.0933H18.1653L17.7525 17.4651C19.1974 15.5807 20.2295 13.2775 20.2295 10.765C20.2295 5.32117 15.6882 0.714844 10.1148 0.714844C4.54133 0.714844 0 5.32117 0 10.9744C0 16.6276 4.54133 21.2339 10.1148 21.2339C12.5919 21.2339 14.8625 20.3964 16.7203 18.7214L17.1332 19.1401V20.3964L24.9773 28.1434L27.248 25.8403L19.4038 18.0933ZM10.1148 18.0933C6.19272 18.0933 3.09636 14.7432 3.09636 10.9744C3.09636 7.20557 6.19272 3.85552 10.1148 3.85552C14.0368 3.85552 17.1332 6.9962 17.1332 10.9744C17.1332 14.9526 13.8304 18.0933 10.1148 18.0933Z" fill="#828282"/>
</svg>
